<svg xmlns="http://www.w3.org/2000/svg" width="414" height="215" viewBox="0 0 414 215">
<g>
<path d="M 406.50 206.21 C373.81,188.77 352.40,161.91 344.27,128.14 C339.29,107.47 338.25,104.57 334.13,99.88 C322.46,86.63 300.93,83.34 265.50,89.40 C244.58,92.98 224.82,93.81 212.32,91.63 C200.98,89.65 195.76,87.95 185.42,82.90 C170.59,75.66 162.44,67.37 149.86,46.75 L 144.21 37.50 L 134.86 38.00 C125.21,38.52 113.13,38.64 101.86,38.46 C116.67,38.43 134.01,38.02 138.74,37.37 L 142.99 36.79 L 140.78 33.65 C133.55,23.33 122.76,14.64 106.63,6.15 L 98.76 2.00 L 302.50 2.00 C195.28,2.00 191.00,2.07 191.00,3.82 C191.00,6.85 199.42,23.09 204.43,29.72 C210.06,37.18 216.21,42.79 225.10,48.59 C237.25,56.52 251.96,61.08 283.00,66.54 C300.01,69.53 315.39,74.43 325.94,80.22 C334.21,84.75 344.01,93.64 355.34,106.86 C370.54,124.61 386.45,134.55 406.00,138.50 C409.58,139.22 412.84,139.85 413.25,139.91 C413.66,139.96 414.00,108.95 414.00,71.00 L 414.00 106.00 C414.00,163.19 413.89,209.97 413.75,209.97 C413.61,209.96 410.35,208.27 406.50,206.21 ZM 72.90 36.93 C72.00,36.82 71.20,36.70 70.50,36.57 C64.24,35.46 58.28,34.02 52.63,32.26 C58.96,34.20 65.71,35.76 72.90,36.93 Z" fill="rgba(117,199,46,1)"/>
<path d="M 406.00 138.50 C386.45,134.55 370.54,124.61 355.34,106.86 C344.01,93.64 334.21,84.75 325.94,80.22 C315.39,74.43 300.01,69.53 283.00,66.54 C251.96,61.08 237.25,56.52 225.10,48.59 C216.21,42.79 210.06,37.18 204.43,29.72 C199.42,23.09 191.00,6.85 191.00,3.82 C191.00,2.07 195.28,2.00 302.50,2.00 L 414.00 2.00 L 414.00 71.00 C414.00,108.95 413.66,139.96 413.25,139.91 C412.84,139.85 409.58,139.22 406.00,138.50 ZM 80.00 37.95 C49.61,34.18 26.33,24.06 10.03,7.54 L 4.57 2.00 L 51.66 2.00 L 98.76 2.00 L 106.63 6.15 C122.76,14.64 133.55,23.33 140.78,33.65 L 142.99 36.79 L 138.74 37.37 C130.81,38.46 87.53,38.88 80.00,37.95 Z" fill="rgba(144,217,56,1)"/>
</g>
</svg>