<svg xmlns="http://www.w3.org/2000/svg" width="1366" height="243" viewBox="0 0 1366 243">
<g>
<path d="M 473.70 241.33 C473.11,242.89 502.50,243.00 919.53,243.00 L 160.50 243.00 C265.41,243.00 321.00,242.66 321.00,242.01 C321.00,239.33 311.62,225.76 304.69,218.39 C290.76,203.60 276.89,194.89 256.50,188.11 C239.52,182.46 227.63,180.36 199.30,178.00 C155.19,174.32 142.68,172.37 127.50,166.82 C112.41,161.29 103.24,155.28 80.81,136.21 C56.68,115.69 47.33,109.20 33.94,103.65 C25.12,100.00 6.98,95.00 2.57,95.00 L 0.05 95.00 C0.15,56.67 0.38,28.54 0.64,26.64 C1.10,23.23 1.71,22.00 2.94,22.00 C4.94,22.00 20.85,31.29 29.91,37.76 C38.79,44.09 57.89,62.73 65.50,72.50 C76.94,87.17 81.95,96.64 86.70,112.50 C92.43,131.67 105.94,143.41 130.36,150.45 C141.71,153.72 149.61,153.73 175.00,150.53 C194.79,148.04 201.54,146.78 215.00,143.10 C250.99,133.24 272.77,129.67 297.50,129.58 C325.00,129.47 340.22,132.44 358.59,141.52 C380.16,152.17 389.72,160.40 411.42,186.97 C419.71,197.12 428.75,207.81 431.50,210.72 L 436.50 216.01 L 438.26 215.75 C437.54,216.20 437.00,216.90 437.00,217.47 C437.00,219.18 444.94,226.48 454.01,233.10 C463.16,239.78 465.86,241.79 468.46,241.66 C469.62,241.61 470.75,241.12 472.42,240.44 C473.96,239.81 474.22,239.99 473.70,241.33 ZM 656.50 200.92 C656.70,200.92 656.89,200.93 657.09,200.94 L 693.69 202.11 L 701.59 198.25 C705.94,196.13 717.38,190.29 727.00,185.26 C743.47,176.67 776.38,162.02 796.50,154.31 C806.81,150.36 830.32,144.31 850.00,140.54 C869.95,136.71 896.92,135.33 922.35,136.84 C959.62,139.05 980.94,143.34 1024.77,157.42 C1032.62,159.94 1039.83,162.00 1040.80,162.00 C1041.00,162.00 1041.40,161.87 1041.99,161.61 C989.42,191.05 953.73,202.09 904.00,207.42 C874.91,210.53 801.58,210.13 752.50,206.58 C698.74,202.70 685.64,201.92 656.50,200.92 ZM 443.64 214.98 C450.77,214.05 466.11,213.43 480.08,213.29 C476.60,213.39 472.64,213.53 468.07,213.71 C458.11,214.10 448.99,214.59 443.64,214.98 ZM 521.10 213.61 L 528.00 211.61 C546.00,206.38 563.23,203.16 584.44,201.56 C564.03,203.16 546.96,206.28 529.50,211.23 L 521.10 213.61 ZM 505.19 213.86 C505.54,213.90 505.87,213.94 506.17,213.98 L 508.15 214.25 L 505.57 213.91 C505.45,213.90 505.32,213.88 505.19,213.86 Z" fill="rgba(116,197,46,1)"/>
<path d="M 473.70 241.33 C474.19,240.05 473.99,239.83 472.64,240.36 C476.21,238.66 481.04,235.74 486.00,232.19 C490.67,228.84 498.43,224.02 503.25,221.48 C508.06,218.94 512.00,216.50 512.00,216.05 C512.00,214.10 500.65,213.08 483.25,213.21 C494.20,212.96 499.91,213.18 505.57,213.91 L 515.50 215.20 L 529.50 211.23 C563.68,201.54 596.33,198.86 655.50,200.88 C685.35,201.90 698.13,202.66 752.50,206.58 C801.58,210.13 874.91,210.53 904.00,207.42 C969.42,200.40 1010.56,183.51 1097.78,127.83 C1159.93,88.16 1188.41,76.77 1235.00,72.94 C1268.55,70.18 1313.90,76.33 1357.75,89.57 L 1366.00 92.06 L 1366.00 243.00 L 919.53 243.00 C502.50,243.00 473.11,242.89 473.70,241.33 ZM 452.63 232.08 C445.78,226.97 439.80,221.64 437.75,218.93 C439.77,221.58 445.63,226.73 452.63,232.08 ZM 437.64 216.24 C437.94,215.94 438.33,215.68 438.75,215.51 C439.04,215.39 440.46,215.23 442.71,215.05 C439.85,215.37 438.37,215.74 437.64,216.24 Z" fill="rgba(126,41,116,1)"/>
<path d="M 0.00 169.00 L 0.00 95.00 L 2.57 95.00 C6.98,95.00 25.12,100.00 33.94,103.65 C47.33,109.20 56.68,115.69 80.81,136.21 C103.24,155.28 112.41,161.29 127.50,166.82 C142.68,172.37 155.19,174.32 199.30,178.00 C227.63,180.36 239.52,182.46 256.50,188.11 C276.89,194.89 290.76,203.60 304.69,218.39 C311.62,225.76 321.00,239.33 321.00,242.01 C321.00,242.66 265.41,243.00 160.50,243.00 L 0.00 243.00 L 0.00 169.00 ZM 464.00 240.23 C450.89,231.49 437.00,219.78 437.00,217.47 C437.00,215.32 439.87,214.90 462.00,213.84 C490.82,212.45 512.00,213.39 512.00,216.05 C512.00,216.50 508.06,218.94 503.25,221.48 C498.43,224.02 490.67,228.84 486.00,232.19 C477.94,237.96 470.24,242.06 467.67,241.95 C467.03,241.92 465.38,241.15 464.00,240.23 Z" fill="rgba(145,217,59,1)"/>
</g>
</svg>