<svg xmlns="http://www.w3.org/2000/svg" width="1366" height="757" viewBox="0 0 1366 757">
<g>
<path d="M 714.00 672.00 L 714.00 543.27 L 719.88 540.64 C723.11,539.19 726.27,538.00 726.90,538.00 C727.54,538.00 730.63,539.28 733.78,540.85 C736.93,542.41 743.01,544.95 747.30,546.50 C751.79,548.11 755.52,550.10 756.10,551.19 C756.66,552.23 759.12,558.80 761.58,565.79 C767.85,583.61 767.84,583.61 770.73,584.92 C773.79,586.32 778.44,584.86 779.52,582.16 C779.89,581.25 782.38,574.31 785.07,566.73 C787.75,559.16 790.39,552.14 790.93,551.13 C791.49,550.09 795.30,548.09 799.71,546.53 C803.99,545.01 810.07,542.47 813.22,540.88 C816.37,539.30 819.52,538.00 820.22,538.00 C820.92,538.00 824.38,539.37 827.91,541.03 L 834.31 544.06 L 833.59 608.06 L 832.87 672.06 L 833.00 672.06 L 833.00 757.00 L 830.59 757.00 C828.58,757.00 823.73,750.88 800.88,719.52 C785.86,698.90 773.28,682.36 772.93,682.77 C772.58,683.17 760.27,700.04 745.58,720.25 C723.08,751.20 718.48,757.00 716.43,757.00 L 714.00 757.00 L 714.00 672.00 ZM 287.07 671.37 C312.76,671.78 369.92,671.89 492.75,671.93 L 714.00 672.00 L 493.13 672.00 C369.48,672.00 313.42,672.12 287.07,671.37 ZM 265.73 669.64 C263.82,669.13 262.85,668.53 261.99,667.79 C261.32,667.22 260.71,666.56 259.78,665.82 C258.37,664.71 256.82,662.99 255.51,661.15 C258.08,664.67 261.75,667.75 265.73,669.64 Z" fill="rgba(211,47,47,1)"/>
<path d="M 714.00 620.00 L 303.00 620.00 L 303.00 209.00 L 926.00 209.00 L 926.00 620.00 L 833.46 620.00 L 833.59 608.06 L 834.31 544.22 C834.40,544.27 834.49,544.31 834.58,544.36 C852.67,553.26 854.21,553.75 857.40,551.66 C862.16,548.54 861.81,546.22 854.21,530.24 C850.35,522.13 846.92,514.58 846.59,513.45 C846.21,512.16 847.40,508.50 849.84,503.45 C851.95,499.08 854.45,493.17 855.39,490.33 C856.34,487.48 857.77,484.60 858.59,483.93 C859.40,483.25 867.12,480.18 875.75,477.10 C892.70,471.04 895.04,469.29 893.64,463.71 C892.81,460.38 892.02,459.97 873.79,453.46 C865.54,450.51 858.20,447.29 857.48,446.31 C856.76,445.32 855.65,442.71 855.00,440.51 C854.36,438.30 852.03,432.54 849.82,427.70 L 845.81 418.91 L 853.41 402.70 C857.59,393.79 861.01,385.85 861.01,385.06 C861.00,382.60 856.80,379.00 853.93,379.00 C852.44,379.00 844.60,382.15 836.50,386.00 C828.40,389.85 821.14,393.00 820.37,393.00 C819.59,393.00 815.92,391.49 812.23,389.64 C808.53,387.79 802.42,385.27 798.65,384.03 C790.79,381.44 791.67,382.81 784.52,361.95 C782.02,354.65 779.47,348.07 778.86,347.34 C777.23,345.37 770.62,345.66 768.70,347.78 C767.82,348.76 764.80,356.07 761.99,364.03 C759.19,371.99 756.30,379.40 755.58,380.51 C754.81,381.70 751.25,383.49 746.88,384.89 C742.82,386.19 736.93,388.55 733.78,390.13 C730.63,391.71 727.48,393.00 726.77,393.00 C726.06,393.00 719.03,389.85 711.14,386.00 C702.36,381.71 695.55,379.00 693.56,379.00 C689.79,379.00 686.75,381.80 686.75,385.28 C686.75,386.57 689.96,394.36 693.88,402.60 C697.79,410.84 701.00,418.14 701.00,418.82 C701.00,419.50 699.70,422.63 698.12,425.78 C696.53,428.93 694.00,434.98 692.49,439.23 C690.99,443.48 689.25,447.35 688.63,447.83 C688.01,448.31 680.75,451.06 672.50,453.94 C664.25,456.82 656.64,460.02 655.58,461.04 C653.33,463.22 653.05,468.51 655.08,470.43 C655.86,471.16 663.25,474.12 671.50,477.02 C679.75,479.91 687.25,482.66 688.17,483.13 C689.08,483.60 690.83,487.02 692.06,490.74 C693.28,494.46 695.79,500.53 697.64,504.23 C699.49,507.92 701.00,511.52 700.99,512.23 C700.99,512.93 697.67,520.62 693.61,529.32 C689.16,538.86 686.43,545.92 686.74,547.10 C687.33,549.35 691.61,553.00 693.68,553.00 C694.46,553.00 701.92,549.62 710.26,545.50 C711.54,544.87 712.79,544.26 714.00,543.67 L 714.00 620.00 ZM 499.50 585.55 C503.85,586.56 510.03,586.82 522.00,586.49 C542.62,585.93 547.62,584.99 551.25,580.99 C554.71,577.19 554.73,574.03 551.34,569.99 C548.80,566.98 548.43,566.86 543.09,567.38 C540.02,567.68 531.42,568.22 524.00,568.57 C512.36,569.13 509.31,568.93 501.90,567.16 C497.17,566.03 490.80,564.00 487.73,562.64 C482.56,560.36 470.00,552.47 470.00,551.50 C470.00,551.27 476.33,546.05 484.08,539.90 C491.82,533.76 498.57,527.64 499.08,526.30 C501.54,519.81 497.86,513.99 491.30,514.02 C487.97,514.03 485.69,515.47 473.00,525.51 C465.02,531.83 457.99,536.99 457.36,537.00 C456.73,537.00 452.73,531.71 448.46,525.25 C438.19,509.71 434.54,505.30 429.13,501.87 C413.99,492.26 395.68,507.97 388.98,536.30 C386.38,547.32 386.16,560.94 388.47,567.90 C391.27,576.35 399.42,581.98 408.86,581.99 C417.42,582.01 432.64,575.82 447.30,566.36 L 454.10 561.97 L 459.68 566.52 C470.60,575.41 484.52,582.06 499.50,585.55 ZM 366.34 268.40 C369.17,269.80 383.38,269.94 501.23,269.73 L 632.95 269.50 L 635.40 267.00 C639.17,263.14 639.23,258.14 635.55,254.45 L 633.09 252.00 L 500.18 252.00 C369.14,252.00 367.23,252.03 364.75,253.98 C359.63,258.01 360.46,265.49 366.34,268.40 ZM 364.50 332.59 L 366.91 335.00 L 486.20 334.97 C578.40,334.94 605.86,334.66 607.09,333.72 C611.48,330.35 612.14,324.44 608.59,320.31 L 606.17 317.50 L 488.84 317.20 C406.64,317.00 370.38,317.23 367.76,317.99 C360.89,319.98 359.24,327.33 364.50,332.59 ZM 367.50 400.05 C368.60,400.50 411.80,400.90 463.50,400.92 C536.22,400.96 558.04,400.69 559.90,399.74 C561.23,399.06 563.19,397.32 564.26,395.87 C566.61,392.70 565.94,387.96 562.72,384.96 C560.67,383.04 558.51,383.00 463.87,383.00 L 367.11 383.00 L 364.36 385.37 C359.54,389.51 361.25,397.50 367.50,400.05 ZM 365.36 464.54 C367.14,465.79 378.69,466.00 445.59,466.00 L 523.73 466.00 L 526.36 463.36 C530.22,459.50 530.04,454.05 525.92,450.59 L 522.85 448.00 L 446.39 448.00 C374.06,448.00 365.61,447.89 363.06,451.72 C362.65,452.33 362.40,453.05 362.05,453.88 C360.52,457.58 361.93,462.14 365.36,464.54 ZM 417.22 562.02 C410.79,564.43 406.43,564.58 405.61,562.42 C404.43,559.36 405.02,545.72 406.59,539.64 C408.37,532.74 414.15,521.08 417.12,518.39 C419.01,516.68 419.18,516.72 421.92,519.56 C426.43,524.22 442.20,548.21 441.31,549.04 C439.32,550.90 422.01,560.23 417.22,562.02 ZM 833.00 660.87 L 833.00 672.06 L 832.87 672.06 L 833.00 660.87 ZM 779.59 581.99 C779.56,582.06 779.54,582.12 779.52,582.16 C779.01,583.42 777.72,584.42 776.18,584.97 C777.70,584.15 779.19,582.97 779.54,582.11 C779.55,582.08 779.57,582.04 779.59,581.99 ZM 726.83 538.00 C726.68,538.02 726.45,538.07 726.16,538.16 C726.46,538.05 726.65,538.00 726.75,538.00 C726.77,538.00 726.80,538.00 726.83,538.00 ZM 820.70 538.08 C820.51,538.04 820.36,538.01 820.25,538.00 C820.27,538.00 820.29,538.00 820.30,538.00 C820.38,538.00 820.51,538.03 820.70,538.08 Z" fill="rgba(247,248,247,1)"/>
<path d="M 770.32 584.81 C767.88,583.63 767.78,583.41 761.58,565.79 C759.12,558.80 756.66,552.23 756.10,551.19 C755.52,550.10 751.79,548.11 747.30,546.50 C743.01,544.95 736.93,542.41 733.78,540.85 C730.63,539.28 727.47,538.00 726.75,538.00 C726.03,538.00 718.61,541.38 710.26,545.50 C701.92,549.62 694.46,553.00 693.68,553.00 C691.61,553.00 687.33,549.35 686.74,547.10 C686.43,545.92 689.16,538.86 693.61,529.32 C697.67,520.62 700.99,512.93 700.99,512.23 C701.00,511.52 699.49,507.92 697.64,504.23 C695.79,500.53 693.28,494.46 692.06,490.74 C690.83,487.02 689.08,483.60 688.17,483.13 C687.25,482.66 679.75,479.91 671.50,477.02 C663.25,474.12 655.86,471.16 655.08,470.43 C653.05,468.51 653.33,463.22 655.58,461.04 C656.64,460.02 664.25,456.82 672.50,453.94 C680.75,451.06 688.01,448.31 688.63,447.83 C689.25,447.35 690.99,443.48 692.49,439.23 C694.00,434.98 696.53,428.93 698.12,425.78 C699.70,422.63 701.00,419.50 701.00,418.82 C701.00,418.14 697.79,410.84 693.88,402.60 C689.96,394.36 686.75,386.57 686.75,385.28 C686.75,381.80 689.79,379.00 693.56,379.00 C695.55,379.00 702.36,381.71 711.14,386.00 C719.03,389.85 726.06,393.00 726.77,393.00 C727.48,393.00 730.63,391.71 733.78,390.13 C736.93,388.55 742.82,386.19 746.88,384.89 C751.25,383.49 754.81,381.70 755.58,380.51 C756.30,379.40 759.19,371.99 761.99,364.03 C764.80,356.07 767.82,348.76 768.70,347.78 C770.62,345.66 777.23,345.37 778.86,347.34 C779.47,348.07 782.02,354.65 784.52,361.95 C791.67,382.81 790.79,381.44 798.65,384.03 C802.42,385.27 808.53,387.79 812.23,389.64 C815.92,391.49 819.59,393.00 820.37,393.00 C821.14,393.00 828.40,389.85 836.50,386.00 C844.60,382.15 852.44,379.00 853.93,379.00 C856.80,379.00 861.00,382.60 861.01,385.06 C861.01,385.85 857.59,393.79 853.41,402.70 L 845.81 418.91 L 849.82 427.70 C852.03,432.54 854.36,438.30 855.00,440.51 C855.65,442.71 856.76,445.32 857.48,446.31 C858.20,447.29 865.54,450.51 873.79,453.46 C892.02,459.97 892.81,460.38 893.64,463.71 C895.04,469.29 892.70,471.04 875.75,477.10 C867.12,480.18 859.40,483.25 858.59,483.93 C857.77,484.60 856.34,487.48 855.39,490.33 C854.45,493.17 851.95,499.08 849.84,503.45 C847.40,508.50 846.21,512.16 846.59,513.45 C846.92,514.58 850.35,522.13 854.21,530.24 C861.81,546.22 862.16,548.54 857.40,551.66 C854.21,553.75 852.67,553.26 834.58,544.36 C827.48,540.86 821.05,538.00 820.30,538.00 C819.55,538.00 816.37,539.30 813.22,540.88 C810.07,542.47 803.99,545.01 799.71,546.53 C795.30,548.09 791.49,550.09 790.93,551.13 C790.39,552.14 787.75,559.16 785.07,566.73 C782.38,574.31 779.89,581.23 779.54,582.11 C778.94,583.61 774.82,586.09 773.20,585.93 C772.82,585.90 771.52,585.39 770.32,584.81 ZM 499.50 585.55 C484.52,582.06 470.60,575.41 459.68,566.52 L 454.10 561.97 L 447.30 566.36 C432.64,575.82 417.42,582.01 408.86,581.99 C399.42,581.98 391.27,576.35 388.47,567.90 C386.16,560.94 386.38,547.32 388.98,536.30 C395.68,507.97 413.99,492.26 429.13,501.87 C434.54,505.30 438.19,509.71 448.46,525.25 C452.73,531.71 456.73,537.00 457.36,537.00 C457.99,536.99 465.02,531.83 473.00,525.51 C485.69,515.47 487.97,514.03 491.30,514.02 C497.86,513.99 501.54,519.81 499.08,526.30 C498.57,527.64 491.82,533.76 484.08,539.90 C476.33,546.05 470.00,551.27 470.00,551.50 C470.00,552.47 482.56,560.36 487.73,562.64 C490.80,564.00 497.17,566.03 501.90,567.16 C509.31,568.93 512.36,569.13 524.00,568.57 C531.42,568.22 540.02,567.68 543.09,567.38 C548.43,566.86 548.80,566.98 551.34,569.99 C554.73,574.03 554.71,577.19 551.25,580.99 C547.62,584.99 542.62,585.93 522.00,586.49 C510.03,586.82 503.85,586.56 499.50,585.55 ZM 366.34 268.40 C360.46,265.49 359.63,258.01 364.75,253.98 C367.23,252.03 369.14,252.00 500.18,252.00 L 633.09 252.00 L 635.55 254.45 C639.23,258.14 639.17,263.14 635.40,267.00 L 632.95 269.50 L 501.23 269.73 C383.38,269.94 369.17,269.80 366.34,268.40 ZM 364.50 332.59 C359.24,327.33 360.89,319.98 367.76,317.99 C370.38,317.23 406.64,317.00 488.84,317.20 L 606.17 317.50 L 608.59 320.31 C612.14,324.44 611.48,330.35 607.09,333.72 C605.86,334.66 578.40,334.94 486.20,334.97 L 366.91 335.00 ZM 367.50 400.05 C361.25,397.50 359.54,389.51 364.36,385.37 L 367.11 383.00 L 463.87 383.00 C558.51,383.00 560.67,383.04 562.72,384.96 C565.94,387.96 566.61,392.70 564.26,395.87 C563.19,397.32 561.23,399.06 559.90,399.74 C558.04,400.69 536.22,400.96 463.50,400.92 C411.80,400.90 368.60,400.50 367.50,400.05 ZM 365.36 464.54 C361.93,462.14 360.52,457.58 362.05,453.88 C362.40,453.05 362.65,452.33 363.06,451.72 C365.61,447.89 374.06,448.00 446.39,448.00 L 522.85 448.00 L 525.92 450.59 C530.04,454.05 530.22,459.50 526.36,463.36 L 523.73 466.00 L 445.59 466.00 C378.69,466.00 367.14,465.79 365.36,464.54 ZM 417.22 562.02 C422.01,560.23 439.32,550.90 441.31,549.04 C442.20,548.21 426.43,524.22 421.92,519.56 C419.18,516.72 419.01,516.68 417.12,518.39 C414.15,521.08 408.37,532.74 406.59,539.64 C405.02,545.72 404.43,559.36 405.61,562.42 C406.43,564.58 410.79,564.43 417.22,562.02 Z" fill="rgba(249,168,37,1)"/>
<path d="M 267.68 670.46 C261.64,668.24 255.97,663.13 253.38,657.56 L 251.02 652.50 L 251.00 176.39 L 253.58 171.22 C256.48,165.40 260.54,161.56 266.66,158.84 C270.68,157.05 282.16,157.00 615.66,157.24 C933.97,157.48 960.73,157.63 963.50,159.15 C967.93,161.59 973.40,167.24 975.58,171.63 C977.45,175.41 977.51,181.13 977.76,412.97 C978.01,646.71 978.45,657.03 973.55,661.52 C972.92,662.09 972.21,662.57 971.40,663.40 C969.47,665.39 966.00,668.03 963.69,669.26 L 959.50 671.50 L 833.00 672.06 L 833.00 620.00 L 926.00 620.00 L 926.00 209.00 L 303.00 209.00 L 303.00 620.00 L 714.00 620.00 L 714.00 672.00 L 492.75 671.93 C305.58,671.87 270.91,671.64 267.68,670.46 Z" fill="rgba(254,183,77,1)"/>
<path d="M 1075.00 722.46 C1075.00,710.07 1069.98,688.49 1064.86,678.88 C1056.28,662.80 1034.23,647.26 1016.00,644.46 L 1008.50 643.31 L 1013.50 642.59 C1035.81,639.36 1056.96,624.51 1065.81,605.85 C1067.99,601.26 1070.50,594.47 1071.39,590.77 C1072.73,585.21 1074.92,569.08 1074.98,564.25 C1074.99,563.56 1075.42,563.00 1075.93,563.00 C1076.44,563.00 1077.13,565.59 1077.47,568.75 C1081.05,602.05 1089.45,618.20 1110.31,631.81 C1119.83,638.03 1127.04,640.84 1137.50,642.42 C1146.13,643.73 1145.55,644.21 1133.85,645.50 C1123.72,646.61 1106.80,656.17 1096.59,666.54 C1086.84,676.45 1081.51,689.55 1078.40,711.25 C1077.39,718.26 1076.22,724.00 1075.78,724.00 C1075.35,724.00 1075.00,723.31 1075.00,722.46 ZM 1147.61 626.31 C1146.82,619.62 1142.89,611.91 1138.59,608.64 C1133.74,604.96 1129.37,603.00 1125.99,603.00 C1124.17,603.00 1123.14,602.58 1123.50,602.00 C1123.84,601.45 1125.46,601.00 1127.10,601.00 C1137.22,601.00 1148.00,587.72 1148.00,575.26 C1148.00,573.26 1148.41,572.13 1149.00,572.50 C1149.55,572.84 1150.01,575.23 1150.02,577.81 C1150.07,588.91 1157.86,598.24 1169.81,601.53 C1173.50,602.55 1173.91,602.84 1171.72,602.91 C1160.96,603.26 1150.00,615.48 1150.00,627.12 C1150.00,633.08 1148.34,632.52 1147.61,626.31 ZM 1030.53 559.32 C1029.56,554.00 1025.57,549.27 1020.65,547.60 L 1016.80 546.29 L 1019.99 545.65 C1024.74,544.70 1029.52,539.39 1030.48,534.00 L 1031.27 529.50 L 1032.09 533.76 C1032.53,536.10 1033.57,538.98 1034.39,540.15 C1036.49,543.15 1041.05,545.97 1044.00,546.10 C1046.23,546.19 1046.16,546.29 1043.39,546.95 C1037.10,548.45 1033.30,552.71 1031.99,559.72 L 1031.28 563.50 L 1030.53 559.32 ZM 193.99 190.75 C193.98,178.03 188.86,157.57 183.33,148.11 C174.61,133.18 150.76,116.97 135.15,115.35 C127.93,114.60 128.77,113.57 137.36,112.61 C152.43,110.93 174.80,95.50 183.32,80.92 C188.48,72.08 192.17,58.51 193.50,43.50 C193.89,39.10 194.44,35.11 194.73,34.64 C195.68,33.09 196.97,36.43 196.99,40.50 C197.04,52.48 203.04,73.72 208.99,82.99 C217.65,96.47 242.30,112.73 254.68,113.12 C256.78,113.18 259.85,113.56 261.50,113.96 C264.49,114.67 264.49,114.68 262.00,115.27 C260.62,115.60 256.80,116.14 253.50,116.46 C239.63,117.82 217.77,132.34 208.99,146.01 C204.23,153.43 200.09,166.17 197.97,179.90 C196.90,186.83 196.02,193.06 196.01,193.75 C196.00,194.44 195.55,195.00 195.00,195.00 C194.45,195.00 194.00,193.09 193.99,190.75 ZM 266.75 97.18 C265.88,87.55 261.26,80.72 252.51,76.10 C250.32,74.95 247.03,74.00 245.21,74.00 C240.47,74.00 242.10,72.36 247.43,71.76 C253.48,71.08 260.72,65.79 263.80,59.80 C265.15,57.17 266.41,52.57 266.73,49.09 C267.33,42.40 269.00,40.73 269.00,46.82 C269.00,59.09 276.87,69.13 289.06,72.41 C293.73,73.66 294.03,73.88 291.21,73.93 C287.25,74.01 281.31,76.91 276.58,81.07 C272.58,84.58 269.00,93.06 269.00,99.04 C269.00,105.11 267.35,103.74 266.75,97.18 ZM 149.65 30.18 C148.82,25.01 144.80,20.36 139.65,18.60 L 135.80 17.29 L 138.84 16.68 C143.65,15.72 148.02,11.12 149.44,5.54 L 150.69 0.64 L 151.35 4.82 C152.19,10.01 156.19,14.62 161.50,16.50 C164.83,17.68 165.07,17.92 162.92,17.96 C158.66,18.03 153.01,23.74 151.57,29.43 L 150.31 34.36 L 149.65 30.18 Z" fill="rgba(255,226,65,1)"/>
</g>
</svg>