<svg xmlns="http://www.w3.org/2000/svg" width="1366" height="757" viewBox="0 0 1366 757">
<g>
<path d="M 575.03 167.25 C573.44,169.26 571.96,170.00 569.54,170.00 C564.68,170.00 562.16,167.38 561.00,161.11 C559.59,153.49 559.68,153.00 562.50,153.00 C565.26,153.00 569.00,149.84 569.00,147.50 C569.00,145.46 571.30,145.61 574.03,147.82 C575.90,149.33 576.36,150.90 576.74,157.07 C577.16,163.61 576.95,164.83 575.03,167.25 ZM 605.14 165.08 C602.14,167.51 596.89,167.54 593.94,165.15 C592.13,163.69 591.57,162.05 591.26,157.40 C590.87,151.55 590.90,151.49 594.19,150.00 C596.01,149.18 597.94,147.49 598.49,146.25 C599.78,143.30 603.51,143.32 605.45,146.29 C606.35,147.66 607.06,151.50 607.23,155.87 C607.48,162.51 607.29,163.34 605.14,165.08 Z" fill="rgba(70,70,70,1)"/>
<path d="M 709.50 755.92 C687.17,753.94 656.64,751.88 635.65,750.96 C621.03,750.31 611.66,749.46 609.61,748.61 C606.42,747.28 603.29,744.00 592.08,730.27 C584.84,721.39 583.78,717.32 587.06,710.85 C588.27,708.45 589.79,705.83 591.57,703.03 C588.45,708.42 587.84,711.97 588.59,716.03 C589.65,721.71 594.57,722.66 632.50,724.45 C711.43,728.19 730.52,729.19 730.91,729.58 C731.97,730.63 749.16,729.85 754.29,728.51 C761.71,726.58 766.55,723.45 772.60,716.66 C778.14,710.44 779.57,708.10 805.29,663.00 C826.64,625.55 834.69,611.56 875.46,541.00 C931.04,444.80 932.96,441.55 933.00,438.28 C933.00,438.08 933.00,437.89 933.00,437.68 C933.00,435.18 932.18,433.25 930.25,431.18 L 927.65 428.40 C932.95,427.77 933.50,428.13 935.08,429.56 C940.90,434.79 951.99,454.52 952.00,459.66 C952.00,462.83 946.90,473.40 940.59,483.31 C936.45,489.81 923.65,512.79 898.98,558.00 C892.53,569.83 886.24,581.30 885.00,583.50 C883.76,585.70 877.46,597.17 871.00,609.00 C860.33,628.52 846.22,654.25 840.55,664.50 C839.33,666.70 835.51,673.67 832.05,680.00 C828.59,686.33 823.62,695.33 821.01,700.00 C818.40,704.67 814.12,712.55 811.49,717.50 C801.16,736.96 791.63,749.07 782.32,754.54 L 778.14 757.00 L 748.32 756.86 C731.92,756.78 714.45,756.36 709.50,755.92 ZM 472.50 644.61 C480.41,648.07 488.35,645.71 505.65,634.78 C517.62,627.23 524.43,623.10 553.50,605.82 C562.30,600.59 588.40,585.06 611.50,571.30 C676.10,532.84 702.04,517.49 707.50,514.48 C724.56,505.09 727.99,502.54 732.35,496.03 C736.56,489.72 733.01,481.61 719.84,467.50 C712.19,459.31 695.42,440.08 682.39,424.58 C679.57,421.24 674.26,415.12 670.58,411.00 C666.90,406.88 662.50,401.39 660.81,398.81 C659.12,396.22 657.13,393.88 656.39,393.59 C654.77,392.97 655.26,389.87 658.77,379.62 C655.83,388.27 655.40,391.51 656.95,392.47 C657.47,392.79 661.38,397.21 665.64,402.28 C669.89,407.35 673.63,411.73 673.94,412.00 C674.84,412.80 693.74,434.56 703.02,445.49 C707.68,450.98 715.81,460.07 721.07,465.68 C734.89,480.40 736.40,482.83 737.00,491.41 L 737.50 498.50 L 740.50 494.22 C742.49,491.39 744.32,488.80 746.02,486.44 C742.28,491.71 737.86,498.14 732.50,506.05 C728.65,511.73 723.94,517.96 722.03,519.88 C720.12,521.80 718.49,523.89 718.39,524.52 C718.34,524.87 717.33,526.51 715.13,529.76 C717.20,526.53 718.39,524.30 718.01,524.17 C716.89,523.80 697.12,535.51 639.00,570.97 C598.89,595.45 563.40,616.97 538.00,632.23 C528.92,637.68 518.63,643.94 515.13,646.13 C502.51,654.04 490.99,659.34 485.42,659.80 C475.35,660.63 467.98,654.94 459.83,640.04 C457.56,635.89 449.53,622.60 441.99,610.50 C424.69,582.76 404.24,548.29 398.76,537.66 C393.72,527.86 392.97,520.22 396.59,515.33 C397.72,513.80 399.47,512.08 401.68,510.31 C398.56,513.11 397.42,515.77 396.66,519.79 C395.76,524.50 398.34,530.48 407.97,546.07 C417.12,560.87 447.41,611.04 456.24,626.00 C462.31,636.29 467.77,642.54 472.50,644.61 ZM 398.61 479.00 L 412.11 479.00 C419.60,479.00 427.93,478.60 430.61,478.10 C433.30,477.61 441.33,476.89 448.47,476.49 C459.36,475.89 461.25,475.99 460.29,477.14 C459.66,477.89 457.43,479.33 455.32,480.34 C450.75,482.54 447.84,484.02 441.73,487.34 C445.13,485.43 447.63,483.98 448.37,483.46 C450.07,482.27 449.37,482.16 442.91,482.61 C438.83,482.90 432.49,483.55 428.81,484.06 C415.41,485.94 405.14,484.85 400.60,481.08 C399.82,480.44 399.16,479.76 398.61,479.00 ZM 675.85 585.10 C679.01,580.65 682.84,575.27 688.44,567.43 C695.08,558.12 703.06,546.94 708.15,539.81 C702.72,547.53 694.89,558.51 684.15,573.50 C680.70,578.31 678.08,581.98 675.85,585.10 ZM 398.01 426.78 C397.96,427.64 397.91,428.53 397.85,429.46 C397.41,437.37 397.06,443.88 396.80,449.26 C397.23,439.89 397.61,432.56 398.01,426.78 ZM 416.54 501.04 C413.30,502.78 410.61,504.27 408.37,505.61 C410.49,504.29 412.79,502.98 415.20,501.74 C415.63,501.52 416.08,501.29 416.54,501.04 ZM 397.10 475.86 C397.11,475.89 397.12,475.91 397.13,475.93 L 398.25 478.46 C397.78,477.70 397.40,476.86 397.10,475.86 ZM 396.35 459.40 C396.23,462.88 396.17,465.60 396.17,467.75 C396.14,465.51 396.20,462.88 396.34,459.75 C396.34,459.63 396.35,459.51 396.35,459.40 ZM 404.39 403.48 C403.09,404.33 402.07,405.36 401.26,406.88 C402.09,405.26 403.11,404.32 404.39,403.48 Z" fill="rgba(89,204,3,1)"/>
<path d="M 730.91 729.58 C730.52,729.19 711.43,728.19 632.50,724.45 C594.57,722.66 589.65,721.71 588.59,716.03 C587.31,709.08 590.00,703.62 602.47,687.89 C605.79,683.71 612.55,674.52 617.50,667.47 C622.45,660.43 628.18,652.27 630.23,649.34 C637.11,639.55 640.64,634.58 649.90,621.67 C654.96,614.61 660.66,606.62 662.55,603.92 C670.64,592.39 673.26,588.69 684.15,573.50 C709.02,538.79 718.23,525.62 718.39,524.52 C718.49,523.89 720.12,521.80 722.03,519.88 C723.94,517.96 728.65,511.73 732.50,506.05 C754.19,474.03 760.50,466.28 769.00,461.23 C773.22,458.71 784.61,455.38 795.50,453.47 C803.29,452.10 811.17,450.57 825.50,447.65 C829.35,446.87 842.85,444.17 855.50,441.65 C868.15,439.13 880.75,436.60 883.50,436.02 C895.45,433.49 905.26,431.68 916.00,430.02 L 927.50 428.24 L 930.25 431.18 C932.18,433.25 933.00,435.18 933.00,437.68 C933.00,437.89 933.00,438.08 933.00,438.28 C932.96,441.55 931.04,444.80 875.46,541.00 C834.69,611.56 826.64,625.55 805.29,663.00 C779.57,708.10 778.14,710.44 772.60,716.66 C766.55,723.45 761.71,726.58 754.29,728.51 C749.16,729.85 731.97,730.63 730.91,729.58 ZM 759.17 719.76 C761.73,718.25 765.80,714.77 768.19,712.03 C770.59,709.29 783.31,688.24 796.45,665.27 C809.60,642.30 824.51,616.30 829.58,607.50 C834.66,598.70 847.46,576.42 858.02,558.00 C878.67,521.96 896.29,491.53 915.23,459.14 C922.32,447.01 926.90,438.17 926.55,437.27 C926.07,436.01 924.72,435.86 918.73,436.42 C914.75,436.80 908.80,437.73 905.50,438.49 C896.36,440.61 881.66,443.70 870.00,445.95 C864.22,447.07 849.15,450.01 836.50,452.50 C823.85,454.98 809.45,457.74 804.50,458.62 C786.08,461.91 777.12,464.26 772.17,467.09 C766.96,470.06 760.64,477.22 751.49,490.50 C748.83,494.35 743.74,501.55 740.16,506.50 C736.58,511.45 729.99,520.67 725.52,527.00 C721.05,533.33 706.64,553.58 693.51,572.00 C680.37,590.42 663.05,614.72 655.02,626.00 C646.99,637.28 632.11,658.09 621.96,672.25 C596.32,708.02 595.00,710.01 595.00,713.06 C595.00,716.73 596.07,716.88 630.00,718.00 C658.59,718.94 689.24,720.39 713.50,721.94 C720.65,722.40 732.80,722.72 740.50,722.64 C753.84,722.51 754.72,722.37 759.17,719.76 ZM 472.50 644.61 C467.77,642.54 462.31,636.29 456.24,626.00 C447.41,611.04 417.12,560.87 407.97,546.07 C398.34,530.48 395.76,524.50 396.66,519.79 C398.14,512.01 401.00,509.34 417.00,500.80 C421.67,498.31 430.00,493.79 435.50,490.76 C446.30,484.82 449.42,483.17 455.32,480.34 C457.43,479.33 459.66,477.89 460.29,477.14 C461.25,475.99 459.36,475.89 448.47,476.49 C441.33,476.89 433.30,477.61 430.61,478.10 C427.93,478.60 419.60,479.00 412.11,479.00 L 398.49 479.00 L 397.13 475.93 C395.70,472.71 395.80,466.34 397.85,429.46 C398.88,411.04 400.07,406.31 404.39,403.48 C408.68,400.67 413.59,400.00 437.00,399.01 C449.38,398.50 464.00,397.60 469.50,397.04 C493.81,394.52 511.13,393.00 515.50,393.00 C519.62,393.00 520.11,392.78 519.42,391.25 C519.25,390.88 519.07,389.88 518.90,388.49 C519.86,392.39 521.82,395.88 525.50,401.44 C525.95,402.12 526.35,402.72 526.69,403.27 C526.61,403.16 526.53,403.04 526.44,402.92 C525.67,401.80 525.16,400.96 524.44,400.35 C522.11,398.38 517.67,398.91 495.59,400.94 C461.25,404.11 450.29,404.94 435.00,405.53 C427.02,405.84 417.64,406.59 414.14,407.18 C408.38,408.16 407.67,408.56 406.52,411.38 C405.83,413.10 404.71,423.05 404.04,433.50 C403.37,443.95 402.58,455.96 402.28,460.18 C401.99,464.41 402.04,469.02 402.39,470.43 C403.02,472.93 403.27,473.00 411.27,472.99 C415.80,472.99 422.13,472.56 425.35,472.03 C428.57,471.50 440.95,470.55 452.85,469.91 C477.61,468.58 474.08,469.68 500.50,454.97 C508.75,450.38 518.08,445.24 521.24,443.56 L 526.98 440.50 L 526.99 425.91 C527.02,432.74 527.37,439.00 528.05,439.00 C528.63,439.00 530.39,438.33 531.96,437.52 C534.58,436.16 534.87,435.48 535.51,428.72 C535.72,435.50 536.57,436.43 538.80,433.74 C539.38,433.05 539.99,428.34 540.17,423.28 C540.48,414.51 540.39,414.04 538.20,413.04 C537.80,412.86 537.40,412.68 537.05,412.53 C539.57,413.56 544.11,415.84 546.03,417.13 C547.71,418.25 550.15,419.66 552.49,420.90 C550.37,420.04 548.24,419.40 547.93,419.75 C547.24,420.53 547.89,428.00 548.65,428.00 C548.89,428.00 550.86,427.09 553.04,425.98 C555.22,424.87 557.00,423.75 557.00,423.50 C557.00,423.35 556.80,423.14 556.45,422.89 C557.91,423.57 559.01,424.00 559.40,424.01 C560.00,424.01 561.80,424.69 563.39,425.52 C565.03,426.38 569.61,427.47 573.75,428.18 C573.44,428.14 573.13,428.09 572.82,428.04 C566.51,427.06 565.50,427.15 562.66,428.88 C559.43,430.85 545.40,438.60 509.00,458.51 C497.73,464.68 481.98,473.33 474.00,477.73 C436.13,498.62 428.86,502.59 420.19,507.11 C409.70,512.56 406.31,514.98 403.84,518.74 C402.23,521.19 402.24,521.60 403.90,525.97 C404.87,528.52 407.45,533.28 409.64,536.55 C414.25,543.45 453.41,608.35 459.86,619.78 C465.09,629.06 470.22,635.53 474.41,638.16 C478.15,640.50 481.86,640.12 489.53,636.62 C492.53,635.24 497.35,632.56 500.24,630.66 C507.66,625.77 634.79,549.90 691.50,516.51 C726.11,496.14 728.58,494.25 727.34,489.13 C726.36,485.11 721.89,479.09 711.87,468.31 C706.85,462.92 696.01,450.62 687.77,441.00 C679.53,431.38 670.01,420.35 666.63,416.50 C663.24,412.65 658.70,407.14 656.53,404.25 C654.36,401.36 652.27,399.00 651.87,399.00 C651.69,399.00 651.52,399.08 651.35,399.23 C651.80,398.16 652.35,396.94 653.00,395.50 C653.93,393.45 655.33,389.82 656.71,385.98 C655.15,391.25 655.17,393.13 656.39,393.59 C657.13,393.88 659.12,396.22 660.81,398.81 C662.50,401.39 666.90,406.88 670.58,411.00 C674.26,415.12 679.57,421.24 682.39,424.58 C695.42,440.08 712.19,459.31 719.84,467.50 C733.01,481.61 736.56,489.72 732.35,496.03 C727.99,502.54 724.56,505.09 707.50,514.48 C702.04,517.49 676.10,532.84 611.50,571.30 C588.40,585.06 562.30,600.59 553.50,605.82 C524.43,623.10 517.62,627.23 505.65,634.78 C488.35,645.71 480.41,648.07 472.50,644.61 ZM 719.00 702.90 C712.12,702.46 687.38,701.93 664.00,701.72 C640.62,701.51 620.71,700.99 619.75,700.56 C618.79,700.14 618.00,699.11 618.00,698.29 C618.00,693.70 626.34,683.25 635.43,676.44 L 639.36 673.50 L 700.93 673.80 C734.79,673.96 763.29,674.33 764.25,674.62 C768.47,675.87 765.05,684.68 756.15,695.49 C748.64,704.60 747.86,704.76 719.00,702.90 ZM 477.73 616.24 C475.16,613.56 469.96,605.22 447.33,567.50 C441.39,557.60 433.29,544.86 429.33,539.19 C421.44,527.88 420.01,524.15 422.28,520.69 C424.15,517.85 435.43,512.00 439.06,512.00 C442.68,512.00 447.59,517.60 455.40,530.65 C466.96,549.92 484.08,576.48 496.51,594.41 C503.55,604.55 503.74,607.33 497.75,612.23 C488.58,619.73 482.28,620.99 477.73,616.24 ZM 408.38 464.36 C407.59,461.22 408.63,440.92 410.01,432.48 C410.55,429.19 410.99,423.95 410.99,420.82 C411.00,415.88 411.34,414.88 413.63,413.07 C417.19,410.27 420.81,410.37 421.92,413.29 C422.41,414.58 422.44,426.27 421.98,439.99 C421.35,459.02 421.23,464.65 418.60,466.31 C417.43,467.05 415.76,467.00 413.33,467.00 C409.53,467.00 408.96,466.70 408.38,464.36 ZM 507.77 354.75 C507.17,353.83 506.31,352.48 505.60,351.36 C505.71,351.51 505.81,351.66 505.91,351.82 C507.23,353.84 510.58,357.98 513.35,361.00 L 518.40 366.50 L 518.12 376.68 C518.12,376.87 518.11,377.06 518.11,377.24 C517.78,370.79 517.42,369.95 515.72,369.41 C514.57,369.05 510.30,366.78 506.23,364.37 C502.16,361.97 498.62,360.00 498.36,360.00 C498.10,360.00 492.40,357.01 485.70,353.36 C473.01,346.45 467.00,341.80 467.00,338.92 C467.00,337.99 468.54,334.98 470.43,332.23 L 473.64 327.58 C477.94,327.87 482.04,328.06 484.13,328.06 C489.64,328.05 489.83,328.14 492.53,332.23 C492.77,332.59 492.99,332.94 493.19,333.27 C493.16,333.23 493.13,333.18 493.10,333.13 C491.83,331.36 490.45,330.04 490.03,330.20 C489.61,330.37 486.71,332.85 483.58,335.73 L 477.88 340.96 L 483.69 343.80 C491.99,347.85 505.33,355.07 506.45,356.11 C508.33,357.86 509.20,356.96 507.77,354.75 ZM 549.24 564.39 C555.19,563.96 560.89,563.13 564.50,562.00 C564.72,561.93 564.94,561.86 565.15,561.79 C581.49,556.51 589.94,548.00 605.14,521.77 C589.96,547.97 581.65,556.38 565.15,561.79 C564.77,561.91 564.39,562.04 564.00,562.16 C558.96,563.73 556.03,564.27 549.24,564.39 ZM 496.50 540.48 C499.55,546.55 504.42,551.88 510.41,555.99 C504.19,551.91 499.71,546.86 496.50,540.48 ZM 535.53 416.34 C535.18,413.94 535.12,412.00 535.40,412.00 C535.47,412.00 535.57,412.02 535.68,412.05 C535.63,412.33 535.57,413.95 535.53,416.34 ZM 675.57 354.88 C673.25,358.02 670.73,360.80 668.06,363.11 C667.85,363.30 667.64,363.48 667.44,363.66 C667.81,363.29 668.20,362.91 668.62,362.50 C671.37,359.83 673.62,357.38 675.57,354.88 ZM 649.83 410.14 C649.28,407.15 649.13,405.58 649.91,403.00 C649.52,405.21 649.43,407.95 649.83,410.14 ZM 523.75 562.45 C525.62,563.03 527.54,563.51 529.48,563.87 C527.38,563.59 525.72,563.14 523.75,562.45 ZM 458.45 326.66 C456.88,326.73 455.81,326.88 455.57,327.10 C455.03,327.60 453.87,331.11 452.86,334.85 C453.87,331.11 455.02,327.59 455.57,327.05 C455.81,326.82 456.84,326.69 458.45,326.66 ZM 662.53 369.75 C661.90,371.04 661.27,372.59 660.53,374.63 C661.24,372.57 661.85,371.05 662.53,369.75 ZM 493.03 340.09 C493.53,341.90 494.93,344.06 496.68,345.60 C494.91,344.06 493.52,341.91 493.03,340.09 ZM 500.69 347.61 C501.15,347.72 501.58,347.87 502.00,348.06 C501.57,347.87 501.12,347.72 500.69,347.61 Z" fill="rgba(137,223,27,1)"/>
<path d="M 770.00 480.69 C770.00,475.05 779.76,469.81 794.62,467.46 C804.90,465.84 817.79,463.43 834.00,460.12 C839.22,459.05 846.49,457.86 850.14,457.48 C855.84,456.89 856.92,457.03 857.75,458.52 C858.23,459.37 858.50,459.76 858.86,459.65 C856.52,462.78 855.92,464.34 856.41,465.63 C856.59,466.09 856.83,466.41 857.27,466.62 C856.85,466.43 856.61,466.15 856.46,465.76 C855.98,464.50 855.03,464.72 850.69,467.07 C844.49,470.43 837.45,472.13 812.00,476.45 C807.33,477.25 799.67,478.57 795.00,479.40 C775.14,482.90 771.04,483.68 770.21,482.37 C769.96,481.98 770.00,481.42 770.00,480.69 ZM 643.96 435.33 C644.42,434.65 644.80,434.14 644.98,434.00 C645.32,433.73 646.67,431.02 647.98,428.00 C649.86,423.64 650.29,421.05 650.09,415.50 C650.03,413.88 649.97,412.15 649.92,410.56 C651.12,416.04 656.63,423.46 670.24,438.00 C675.69,443.81 681.05,450.60 682.26,453.20 C683.37,455.58 685.16,458.03 686.41,458.93 C683.86,457.32 683.74,457.42 681.00,460.15 C679.44,461.72 677.22,463.00 676.08,463.00 C674.27,463.00 673.68,464.30 674.26,466.35 C674.11,465.93 674.03,465.56 674.03,465.25 C674.01,464.01 673.38,463.00 672.62,463.00 C670.95,463.00 660.72,452.18 652.50,441.73 C649.20,437.54 646.04,434.08 645.48,434.05 C645.15,434.04 644.58,434.54 643.96,435.33 ZM 541.16 414.43 C538.57,413.14 535.97,412.00 535.40,412.00 C535.11,412.00 535.18,414.03 535.55,416.52 C535.93,419.00 535.92,424.41 535.53,428.54 C534.88,435.47 534.61,436.15 531.96,437.52 C530.39,438.33 528.63,439.00 528.05,439.00 C526.63,439.00 526.64,411.54 528.06,408.88 C528.79,407.52 528.59,406.37 526.78,403.43 C530.34,408.74 531.38,409.39 539.50,413.57 C540.06,413.86 540.62,414.15 541.16,414.43 ZM 691.50 486.16 C688.24,484.17 683.63,479.57 679.96,475.10 C684.04,479.91 688.78,484.50 691.50,486.16 ZM 651.56 398.75 C651.91,397.82 652.30,396.89 652.71,396.00 C654.36,392.42 657.23,384.77 659.09,379.00 C657.23,384.77 654.50,392.20 653.00,395.50 C652.45,396.73 651.97,397.80 651.56,398.75 ZM 548.25 418.52 C547.43,418.03 546.67,417.56 546.03,417.13 C545.81,416.98 545.56,416.83 545.29,416.66 C546.45,417.31 547.26,417.79 547.50,417.99 C547.68,418.14 547.94,418.32 548.25,418.52 ZM 686.70 459.11 C686.70,459.11 686.71,459.11 686.72,459.12 C687.77,459.68 690.21,461.94 692.56,464.49 C690.35,462.12 687.95,459.90 686.70,459.11 ZM 641.88 445.88 C641.00,441.75 641.00,440.47 642.19,438.24 C641.04,440.59 641.04,441.93 641.88,445.88 ZM 554.77 422.08 C556.97,423.16 558.91,424.00 559.40,424.01 C558.87,424.00 557.02,423.20 554.77,422.08 Z" fill="rgba(129,220,59,1)"/>
<path d="M 575.93 213.61 C573.31,217.86 569.81,218.04 562.15,214.34 C552.40,209.62 539.72,194.81 547.09,196.73 C550.10,197.52 559.70,194.99 561.58,192.91 C562.88,191.47 563.64,191.34 565.56,192.21 C568.08,193.36 579.53,191.57 580.59,189.86 C582.68,186.47 593.60,192.21 595.97,197.94 C597.57,201.79 597.04,202.33 590.19,203.83 C584.12,205.16 578.97,208.69 575.93,213.61 Z" fill="rgba(164,21,21,1)"/>
<path d="M 711.05 642.87 C704.15,641.72 697.74,637.98 694.51,633.23 C692.34,630.04 692.00,628.44 692.01,621.52 C692.03,610.63 695.68,602.46 708.09,585.50 C713.33,578.35 721.35,567.01 725.91,560.30 C734.90,547.09 740.55,540.84 745.27,538.89 C747.98,537.77 748.84,537.93 753.63,540.43 C757.20,542.30 759.76,543.03 761.38,542.62 C762.71,542.29 770.25,537.00 778.15,530.88 C793.40,519.04 798.54,516.06 803.73,516.02 C807.75,515.99 808.85,517.60 812.99,529.50 C820.17,550.12 820.97,553.33 820.99,561.32 C821.02,578.56 809.03,597.41 787.55,613.89 C764.76,631.39 751.71,638.38 736.32,641.35 C725.38,643.46 717.41,643.94 711.05,642.87 ZM 724.80 618.95 C727.44,621.60 728.56,622.00 733.24,622.00 C744.03,622.00 755.91,616.22 766.83,605.66 C777.22,595.60 778.23,591.08 774.39,571.74 C773.78,568.69 771.54,566.00 769.60,566.00 C767.86,566.00 750.00,578.10 741.35,585.14 C728.66,595.48 723.20,603.04 722.23,611.66 C721.81,615.38 722.13,616.28 724.80,618.95 Z" fill="rgba(167,168,167,1)"/>
<path d="M 586.50 429.69 C584.30,429.04 581.90,428.65 581.16,428.82 C578.77,429.37 566.35,427.06 563.39,425.52 C561.80,424.69 560.00,424.01 559.40,424.01 C558.27,424.00 549.30,419.46 547.50,417.99 C546.95,417.54 543.35,415.55 539.50,413.57 C530.59,408.98 530.20,408.65 525.66,401.74 C518.75,391.23 517.81,388.09 518.12,376.68 L 518.38 367.04 C518.54,367.25 518.68,367.45 518.80,367.62 C521.52,371.56 535.31,382.03 542.24,385.41 C550.77,389.58 563.20,392.30 570.88,391.68 C574.52,391.39 578.81,390.82 580.41,390.43 L 583.32 389.71 L 579.21 395.44 C574.27,402.35 572.18,410.36 573.88,415.92 C574.48,417.89 576.74,421.55 578.90,424.06 C581.81,427.44 583.48,428.74 588.36,430.22 C587.69,430.03 587.06,429.85 586.50,429.69 ZM 649.91 410.34 C649.58,408.38 649.15,406.81 648.71,406.38 C648.42,406.09 646.82,406.56 645.14,407.43 C640.26,409.95 639.01,409.51 638.94,405.25 C638.86,399.68 635.92,393.39 630.54,387.29 C627.90,384.30 626.14,381.51 626.62,381.08 C627.11,380.66 632.22,379.08 638.00,377.58 C651.08,374.18 661.08,369.32 668.80,362.33 C668.74,362.38 668.68,362.44 668.62,362.50 C662.80,368.16 662.26,369.09 659.09,379.00 C657.23,384.77 654.36,392.42 652.71,396.00 C651.06,399.58 649.74,403.85 649.77,405.50 C649.79,406.42 649.84,408.24 649.91,410.34 ZM 646.76 430.70 C647.82,428.27 649.03,424.96 649.78,422.41 C649.45,424.22 648.88,425.90 647.98,428.00 C647.56,428.96 647.15,429.88 646.76,430.70 ZM 675.90 354.45 C679.12,350.08 681.82,345.08 684.10,339.37 C681.63,345.55 679.22,350.09 675.90,354.45 ZM 500.30 347.53 C498.21,347.14 496.13,345.39 494.70,343.40 C496.14,345.39 498.25,347.14 500.37,347.54 C502.44,347.93 503.94,348.93 505.17,350.76 C503.73,348.88 502.22,347.89 500.30,347.53 ZM 513.98 361.68 L 513.35 361.00 C512.87,360.47 512.36,359.90 511.85,359.32 C511.91,359.38 511.96,359.44 512.02,359.50 C512.65,360.19 513.32,360.93 513.98,361.68 Z" fill="rgba(217,32,31,1)"/>
<path d="M 724.80 618.95 C722.13,616.28 721.81,615.38 722.23,611.66 C723.20,603.04 728.66,595.48 741.35,585.14 C750.00,578.10 767.86,566.00 769.60,566.00 C771.54,566.00 773.78,568.69 774.39,571.74 C778.23,591.08 777.22,595.60 766.83,605.66 C755.91,616.22 744.03,622.00 733.24,622.00 C728.56,622.00 727.44,621.60 724.80,618.95 ZM 611.36 175.62 C606.06,177.84 601.69,177.37 598.38,174.25 C596.78,172.74 593.77,170.38 591.71,169.00 C587.13,165.96 586.53,164.03 586.51,152.43 C586.50,143.96 586.69,143.10 589.38,139.57 C592.56,135.40 598.85,132.04 603.50,132.04 C608.51,132.04 614.62,135.48 617.58,139.95 C619.73,143.19 620.46,145.79 621.04,152.28 C621.44,156.80 621.54,161.92 621.27,163.66 C620.62,167.76 615.55,173.87 611.36,175.62 ZM 623.17 368.42 L 623.50 377.34 L 620.69 378.10 C619.61,378.39 618.87,378.61 618.35,378.37 C617.22,377.85 617.09,375.19 616.56,366.50 C614.53,333.28 611.55,312.45 605.94,292.50 C602.51,280.28 601.31,277.48 596.51,270.47 C593.48,266.06 591.00,261.77 591.00,260.95 C591.00,258.61 595.76,252.21 598.04,251.49 C599.17,251.13 600.64,251.27 601.30,251.80 C601.96,252.33 607.00,255.13 612.50,258.01 C622.20,263.10 623.95,264.39 623.98,266.50 C623.99,267.05 620.85,271.01 617.00,275.29 C613.15,279.57 610.00,283.25 610.00,283.47 C610.00,283.69 610.49,285.14 611.09,286.68 C614.55,295.63 618.33,314.56 619.95,331.00 C620.52,336.77 621.40,345.55 621.91,350.50 C622.42,355.45 622.99,363.51 623.17,368.42 ZM 576.66 174.75 C573.95,177.78 572.44,177.62 561.21,173.12 C558.31,171.95 554.42,171.00 552.59,171.00 C550.75,171.00 548.68,170.32 547.98,169.48 C546.15,167.26 545.41,149.85 546.99,146.03 C548.72,141.86 554.17,137.30 558.99,136.00 C566.41,134.00 575.63,138.48 578.57,145.51 C579.28,147.21 580.18,152.51 580.57,157.27 C581.32,166.57 580.44,170.53 576.66,174.75 ZM 691.50 486.16 C688.10,484.09 681.56,477.44 677.08,471.50 C673.46,466.71 673.02,463.00 676.08,463.00 C677.22,463.00 679.44,461.72 681.00,460.15 C683.83,457.32 683.87,457.31 686.69,459.10 C688.25,460.09 691.62,463.32 694.18,466.28 C703.53,477.12 705.13,482.18 700.37,485.93 C697.13,488.47 695.36,488.52 691.50,486.16 ZM 856.41 465.63 C855.83,464.11 856.77,462.20 860.30,457.79 C862.58,454.93 866.66,453.92 889.58,450.49 C897.79,449.26 897.51,455.13 889.10,460.44 C885.03,463.00 874.96,465.45 863.77,466.59 C858.05,467.17 856.95,467.03 856.41,465.63 ZM 544.91 197.21 C544.84,196.85 544.78,196.47 544.73,196.07 C543.58,187.39 550.23,179.63 558.70,179.75 C562.41,179.81 563.98,180.51 568.03,183.93 C570.70,186.18 574.27,188.30 575.95,188.64 C577.63,188.98 579.00,189.73 579.00,190.32 C579.00,190.55 579.04,190.70 579.13,190.77 C575.71,192.11 567.63,193.15 565.56,192.21 C563.64,191.34 562.88,191.47 561.58,192.91 C559.70,194.99 550.10,197.52 547.09,196.73 C545.73,196.38 545.05,196.59 544.91,197.21 ZM 575.03 167.25 C576.95,164.83 577.16,163.61 576.74,157.07 C576.36,150.90 575.90,149.33 574.03,147.82 C571.30,145.61 569.00,145.46 569.00,147.50 C569.00,149.84 565.26,153.00 562.50,153.00 C559.68,153.00 559.59,153.49 561.00,161.11 C562.16,167.38 564.68,170.00 569.54,170.00 C571.96,170.00 573.44,169.26 575.03,167.25 ZM 605.14 165.08 C607.29,163.34 607.48,162.51 607.23,155.87 C607.06,151.50 606.35,147.66 605.45,146.29 C603.51,143.32 599.78,143.30 598.49,146.25 C597.94,147.49 596.01,149.18 594.19,150.00 C590.90,151.49 590.87,151.55 591.26,157.40 C591.57,162.05 592.13,163.69 593.94,165.15 C596.89,167.54 602.14,167.51 605.14,165.08 ZM 586.89 189.86 C590.58,191.24 594.49,194.36 595.97,197.94 C594.63,194.70 590.56,191.46 586.89,189.86 ZM 553.65 208.48 C552.76,207.73 551.89,206.94 551.06,206.12 C547.98,203.11 546.46,201.36 545.63,199.53 C546.99,201.92 550.06,205.37 553.65,208.48 ZM 575.93 213.61 C574.26,216.32 573.22,216.99 570.69,216.96 C572.98,216.92 574.57,215.81 575.93,213.61 ZM 580.10 190.29 C580.14,190.26 580.17,190.23 580.20,190.20 C580.32,190.08 580.44,189.98 580.57,189.88 C580.48,190.02 580.32,190.16 580.10,190.29 Z" fill="rgba(232,231,229,1)"/>
<path d="M 575.93 213.61 C578.97,208.69 584.12,205.16 590.19,203.83 C594.52,202.88 596.33,202.31 596.66,201.05 C596.74,201.60 596.79,202.17 596.80,202.75 C596.86,205.81 596.69,205.97 593.93,205.49 C592.32,205.20 589.51,205.60 587.68,206.36 C583.52,208.10 577.00,213.74 577.00,215.60 C577.00,216.37 576.59,217.00 576.08,217.00 C575.58,217.00 574.56,217.18 573.83,217.40 C571.75,218.01 568.18,217.12 564.23,215.26 C566.65,216.33 568.88,216.94 570.67,216.96 C573.21,216.99 574.25,216.33 575.93,213.61 ZM 592.02 192.87 C588.02,189.55 582.51,187.89 580.20,190.20 C582.13,188.27 586.26,188.81 590.26,191.53 C590.89,191.96 591.48,192.41 592.02,192.87 Z" fill="rgba(227,94,47,1)"/>
<path d="M 597.41 184.10 C595.11,186.64 591.69,186.50 588.46,183.72 C586.23,181.80 585.72,180.38 585.28,174.85 C584.69,167.61 585.53,166.17 589.23,168.08 L 591.50 169.25 L 589.33 167.16 C589.23,167.07 589.13,166.96 589.04,166.83 C589.73,167.59 590.60,168.26 591.71,169.00 C593.77,170.38 596.78,172.74 598.38,174.25 C599.68,175.47 601.13,176.29 602.74,176.69 C599.45,176.26 599.29,176.44 599.21,179.22 C599.17,180.86 598.35,183.06 597.41,184.10 ZM 729.73 314.04 C732.41,309.01 734.20,303.99 734.24,300.75 C734.29,297.89 734.72,296.34 735.41,296.59 C736.01,296.82 736.98,295.99 737.56,294.75 C738.15,293.51 741.88,286.20 745.85,278.50 C748.89,272.60 751.54,266.73 753.04,262.64 C752.08,265.78 750.72,269.05 748.96,272.50 C736.62,296.70 734.20,301.81 733.62,304.92 C733.22,307.05 731.72,310.45 729.73,314.04 ZM 586.80 144.85 C586.54,146.50 586.51,148.75 586.51,152.43 C586.52,155.97 586.58,158.60 586.79,160.65 C586.03,156.73 585.77,151.77 586.25,147.44 C586.35,146.57 586.54,145.70 586.80,144.85 ZM 754.73 250.47 C753.74,238.32 745.49,227.07 734.13,222.40 C738.66,224.11 742.56,226.83 745.86,230.58 C751.43,236.90 754.37,243.37 754.73,250.47 ZM 603.50 132.04 C600.10,132.04 595.83,133.83 592.53,136.43 C595.67,133.75 599.60,132.04 603.50,132.04 ZM 711.31 332.30 C715.69,330.67 719.71,327.99 722.79,324.39 C722.94,324.22 723.08,324.04 723.23,323.86 C722.95,324.22 722.66,324.56 722.38,324.89 C719.51,328.23 715.60,330.75 711.31,332.30 ZM 615.34 172.94 C617.22,171.23 618.95,169.05 620.07,166.95 C619.43,168.28 618.54,169.51 617.36,170.89 C616.72,171.64 616.04,172.33 615.34,172.94 ZM 621.42 160.66 C621.43,158.31 621.29,155.17 621.04,152.28 C621.35,155.78 621.50,158.46 621.42,160.66 ZM 719.19 220.31 C717.16,220.43 715.07,220.63 713.26,220.91 C715.30,220.60 717.28,220.40 719.19,220.31 Z" fill="rgba(232,137,127,1)"/>
<path d="M 623.17 368.42 C622.99,363.51 622.42,355.45 621.91,350.50 C621.40,345.55 620.52,336.77 619.95,331.00 C618.33,314.56 614.55,295.63 611.09,286.68 C610.49,285.14 610.00,283.69 610.00,283.47 C610.00,283.25 613.15,279.57 617.00,275.29 C620.85,271.01 623.99,267.05 623.98,266.50 C623.95,264.39 622.20,263.10 612.50,258.01 C611.16,257.31 609.84,256.61 608.60,255.94 C608.95,255.96 608.92,255.69 608.58,255.13 C608.28,254.65 611.07,253.24 614.77,252.01 C625.74,248.34 636.21,242.81 640.78,238.26 C643.13,235.92 645.68,234.00 646.44,234.00 C647.45,234.00 648.78,232.41 650.05,230.04 C649.60,231.03 649.39,231.82 649.53,232.05 C649.77,232.43 652.56,232.13 655.73,231.39 C658.90,230.64 666.90,228.94 673.50,227.60 C684.45,225.39 689.58,224.52 713.26,220.91 C717.52,220.26 723.35,220.00 726.20,220.34 C744.32,222.48 757.85,241.02 754.24,258.75 C753.55,262.12 750.09,270.28 745.85,278.50 C741.88,286.20 738.15,293.51 737.56,294.75 C736.98,295.99 736.01,296.82 735.41,296.59 C734.90,296.40 734.53,297.22 734.35,298.83 C734.26,291.16 730.99,282.90 725.87,278.43 C717.51,271.12 707.39,266.73 698.95,266.77 C687.48,266.83 680.07,271.48 673.25,282.91 C670.91,286.82 668.26,292.71 667.34,295.98 C665.78,301.61 665.79,302.32 667.50,308.64 C670.13,318.34 678.60,326.69 691.33,332.12 C689.37,331.38 687.74,330.94 687.57,331.12 C687.38,331.33 685.84,335.00 684.14,339.28 C675.91,359.95 662.27,371.27 638.00,377.58 C632.22,379.08 627.11,380.66 626.62,381.08 C626.14,381.51 627.90,384.30 630.54,387.29 C630.91,387.71 631.27,388.13 631.62,388.55 C629.11,385.66 626.09,383.13 622.81,381.30 C617.70,378.46 617.17,378.37 609.00,379.04 C599.27,379.84 593.98,382.40 583.88,391.19 C580.68,393.97 578.32,396.68 576.64,399.61 C577.38,398.20 578.24,396.80 579.21,395.44 L 583.32 389.71 L 580.41 390.43 C578.81,390.82 574.52,391.39 570.88,391.68 C563.20,392.30 550.77,389.58 542.24,385.41 C535.31,382.03 521.52,371.56 518.80,367.62 C517.61,365.90 514.56,362.25 512.02,359.50 C509.47,356.75 506.55,353.07 505.53,351.33 C504.51,349.59 503.30,348.50 501.71,347.91 C502.51,347.96 503.00,347.79 503.00,347.38 C503.00,345.85 495.68,337.00 494.41,337.00 C492.41,337.00 492.71,339.84 494.12,342.54 C492.59,340.04 492.20,337.43 494.15,336.78 C494.87,336.54 494.27,334.85 492.53,332.23 C489.83,328.14 489.64,328.05 484.13,328.06 C481.04,328.06 473.55,327.63 467.50,327.11 C460.94,326.53 456.13,326.51 455.57,327.05 C454.50,328.09 451.14,340.46 451.06,343.67 C451.04,344.52 451.69,345.94 452.67,347.28 C452.37,347.10 452.08,347.00 451.82,347.00 C451.25,347.00 449.87,348.17 448.74,349.60 C446.08,352.99 438.94,356.00 433.57,356.00 C424.65,356.00 410.83,349.29 405.14,342.20 C403.08,339.62 401.69,338.80 400.45,340.07 C400.51,340.00 400.57,339.94 400.63,339.89 C401.38,339.27 402.00,337.99 402.00,337.05 C402.00,336.11 403.33,329.98 404.96,323.42 C406.59,316.86 409.53,304.75 411.49,296.50 C416.92,273.73 421.90,268.10 438.53,266.00 C445.63,265.10 465.47,262.16 489.00,258.52 C494.23,257.71 500.86,256.75 503.75,256.40 C508.04,255.86 509.00,255.39 509.00,253.82 C509.00,252.31 508.59,252.00 501.45,252.29 L 509.00 251.70 L 509.00 247.35 C509.00,244.96 509.26,243.00 509.57,243.00 C509.89,243.00 512.06,244.12 514.40,245.50 C519.87,248.70 528.29,251.67 539.00,254.18 C545.52,255.71 552.57,256.30 569.23,256.72 L 590.97 257.28 L 590.37 259.89 C590.05,261.25 590.39,261.12 591.35,259.53 C591.13,260.08 591.00,260.57 591.00,260.95 C591.00,261.77 593.48,266.06 596.51,270.47 C601.31,277.48 602.51,280.28 605.94,292.50 C611.55,312.45 614.53,333.28 616.56,366.50 C617.09,375.19 617.22,377.85 618.35,378.37 C618.87,378.61 619.61,378.39 620.69,378.10 L 623.50 377.34 ZM 630.11 131.95 C629.94,130.78 629.82,129.85 629.78,129.29 C629.59,126.30 629.24,126.00 624.74,125.04 C615.63,123.08 594.51,123.90 564.50,127.37 C544.67,129.67 525.90,132.58 517.50,134.67 C508.00,137.03 500.59,141.38 488.31,151.80 L 476.89 161.50 L 477.47 166.50 C477.99,171.02 478.08,178.69 477.85,186.07 C478.08,178.62 477.97,170.87 477.42,166.25 C476.89,161.69 476.52,161.00 474.60,161.00 C470.99,161.00 470.00,159.05 470.00,151.88 C470.00,146.26 470.39,144.69 472.37,142.33 C474.33,139.99 474.78,138.24 475.14,131.06 C474.97,135.50 475.18,138.99 475.63,138.98 C476.11,138.98 480.33,135.57 485.00,131.42 C494.30,123.15 497.04,121.49 507.52,117.73 C516.99,114.33 524.96,112.52 541.00,110.10 C565.60,106.39 585.28,104.66 603.75,104.58 C615.19,104.53 621.99,104.13 621.99,103.50 C621.99,103.32 621.94,103.09 621.85,102.81 C622.63,104.15 623.72,105.53 624.62,106.25 C628.17,109.08 632.52,124.94 630.14,126.41 C629.65,126.71 629.65,128.59 630.11,131.95 ZM 601.58 486.53 C605.67,491.52 605.83,491.59 608.56,489.53 C609.87,488.54 613.02,488.05 618.21,488.03 L 625.92 488.00 L 628.27 483.99 C627.54,485.29 627.00,486.46 627.00,486.95 C627.00,487.40 628.66,488.09 630.69,488.47 C638.86,490.00 648.38,496.69 649.66,501.79 C650.61,505.58 648.80,511.09 645.89,513.24 C642.22,515.97 635.18,515.93 631.42,513.16 C629.45,511.71 625.91,510.68 620.58,510.01 C616.22,509.46 612.57,509.12 612.46,509.25 C612.44,509.28 612.33,509.46 612.14,509.77 L 608.58 506.51 C606.61,504.70 605.00,502.50 605.00,501.62 C605.00,500.46 604.08,500.00 601.80,500.00 C599.27,500.00 597.65,498.99 594.03,495.13 C588.76,489.52 583.67,480.10 583.67,475.98 C583.67,474.41 583.29,473.44 582.44,472.93 C583.36,472.93 584.57,472.49 586.18,471.71 C588.48,470.60 589.91,470.46 591.52,471.19 C593.08,471.90 595.15,471.79 598.61,470.80 L 601.47 469.99 L 599.10 470.67 C596.69,471.38 594.51,472.15 594.27,472.40 C593.40,473.27 598.00,482.16 601.58,486.53 ZM 576.08 217.00 C576.59,217.00 577.00,216.37 577.00,215.60 C577.00,213.74 583.52,208.10 587.68,206.36 C589.51,205.60 592.32,205.20 593.93,205.49 C596.63,205.96 596.85,205.82 596.80,202.96 C596.83,203.34 596.85,203.72 596.86,204.12 C596.99,208.16 596.53,209.28 593.12,213.12 L 589.23 217.50 L 580.87 217.69 C578.20,217.76 575.77,217.69 573.52,217.47 C573.63,217.45 573.73,217.43 573.83,217.40 C574.56,217.18 575.58,217.00 576.08,217.00 ZM 565.16 215.68 C560.22,213.91 555.89,210.87 551.03,206.10 C555.13,210.12 560.48,213.63 565.16,215.68 ZM 607.07 88.23 C602.96,86.95 597.40,86.42 588.77,86.18 C599.90,86.49 603.54,86.85 607.07,88.23 ZM 694.08 333.10 C700.21,334.85 707.29,334.15 713.33,331.47 C707.28,334.24 700.31,334.93 694.08,333.10 ZM 581.10 472.42 C579.92,471.83 579.83,470.33 580.04,463.81 C580.24,457.83 580.30,454.69 579.95,452.84 C580.30,454.68 580.24,457.81 580.05,463.74 C579.89,468.69 580.08,471.38 581.10,472.42 ZM 453.79 361.36 C455.60,359.56 457.00,357.16 457.00,355.21 C457.00,353.89 456.35,352.12 455.47,350.57 C457.94,354.06 457.47,357.68 454.08,361.08 C453.98,361.17 453.88,361.27 453.79,361.36 ZM 650.68 228.80 C651.58,226.90 652.42,224.67 653.04,222.41 C652.46,224.85 651.77,226.98 651.10,228.07 C650.95,228.32 650.81,228.56 650.68,228.80 ZM 653.98 217.58 C654.38,214.15 654.50,210.91 654.25,210.25 C654.67,211.35 654.48,214.32 653.98,217.58 ZM 465.05 245.46 C469.90,249.03 474.05,251.13 479.46,252.14 C474.09,251.21 470.10,249.17 465.05,245.46 ZM 723.28 323.81 C725.66,320.84 728.08,317.10 730.02,313.49 C728.14,317.11 725.79,320.77 723.28,323.81 ZM 620.83 100.69 C620.02,99.27 618.86,97.58 617.61,96.00 C618.96,97.55 620.08,99.16 620.83,100.69 ZM 421.33 376.57 C426.41,377.35 431.27,376.97 434.67,375.35 C431.19,377.00 426.42,377.39 421.33,376.57 ZM 574.49 417.43 C574.22,416.87 574.01,416.35 573.88,415.92 C573.58,414.93 573.39,413.87 573.33,412.74 C573.44,414.34 573.82,415.87 574.49,417.43 ZM 397.63 358.77 C398.94,362.93 401.09,366.30 404.26,369.06 C401.08,366.32 398.95,362.97 397.63,358.77 ZM 477.51 118.19 C479.55,113.75 483.21,110.40 489.79,106.01 C483.23,110.39 479.56,113.76 477.51,118.19 ZM 603.49 469.39 L 599.68 465.89 C598.26,464.57 597.16,463.27 596.35,461.88 C597.16,463.27 598.26,464.57 599.68,465.88 L 603.50 469.39 L 603.49 469.39 ZM 594.53 195.60 C593.47,194.10 592.05,192.75 590.26,191.53 C592.10,192.78 593.50,194.09 594.53,195.60 ZM 594.00 431.72 C589.91,430.71 587.25,429.97 585.26,429.12 C587.26,429.96 589.93,430.72 594.00,431.72 ZM 635.43 476.27 C633.91,477.86 632.56,479.00 631.97,479.00 L 631.97 479.00 C632.56,479.00 633.91,477.86 635.43,476.27 ZM 573.48 409.09 C573.53,408.68 573.60,408.26 573.68,407.85 C573.61,408.25 573.54,408.66 573.48,409.07 C573.48,409.08 573.48,409.08 573.48,409.09 Z" fill="rgba(254,75,75,1)"/>
<path d="M 530.50 564.05 C515.69,561.61 502.53,552.48 496.50,540.48 C493.66,534.82 493.50,533.85 493.51,522.50 C493.52,511.51 493.75,510.00 496.28,504.58 C500.23,496.11 511.74,485.21 525.39,477.00 C540.20,468.10 547.62,463.26 553.43,458.71 C559.15,454.24 564.54,451.34 570.48,449.56 C573.97,448.50 575.15,448.52 577.35,449.68 C580.31,451.23 580.43,451.87 580.04,463.81 C579.80,471.34 579.96,472.18 581.72,472.64 C583.07,472.99 583.67,474.01 583.67,475.98 C583.67,480.10 588.76,489.52 594.03,495.13 C597.65,498.99 599.27,500.00 601.80,500.00 C604.08,500.00 605.00,500.46 605.00,501.62 C605.00,502.50 606.61,504.70 608.58,506.51 L 612.15 509.78 L 605.09 521.91 C589.67,548.40 581.22,556.75 564.50,562.00 C556.72,564.44 539.23,565.50 530.50,564.05 ZM 475.18 130.19 C475.75,118.10 478.50,113.55 489.79,106.01 C497.82,100.63 498.00,100.43 498.00,96.45 C498.00,94.21 498.61,91.55 499.35,90.54 C500.51,88.95 501.14,88.85 503.95,89.83 C507.75,91.16 511.00,89.92 511.00,87.16 C511.00,83.99 515.87,75.53 520.23,71.11 C527.23,64.04 530.98,62.56 542.00,62.53 C550.16,62.52 552.20,62.87 556.47,65.01 C562.91,68.24 568.71,74.20 571.68,80.64 L 574.05 85.78 L 588.77 86.18 C605.03,86.63 610.39,88.13 615.63,93.69 C618.68,96.93 621.99,102.04 621.99,103.50 C621.99,104.13 615.19,104.53 603.75,104.58 C585.28,104.66 565.60,106.39 541.00,110.10 C524.96,112.52 516.99,114.33 507.52,117.73 C497.04,121.49 494.30,123.15 485.00,131.42 C480.33,135.57 476.11,138.98 475.63,138.98 C475.15,138.99 474.94,135.04 475.18,130.19 ZM 490.50 252.00 C490.26,252.38 490.57,252.70 491.25,252.87 C478.88,253.16 472.86,251.21 465.05,245.46 C456.41,239.10 450.52,228.41 451.19,220.30 L 451.50 216.50 L 460.82 215.91 C472.51,215.17 474.25,213.78 476.38,203.50 C477.87,196.30 478.49,175.36 477.47,166.50 L 476.89 161.50 L 488.31 151.80 C500.59,141.38 508.00,137.03 517.50,134.67 C518.49,134.42 519.62,134.16 520.88,133.90 C518.47,134.54 517.50,135.13 517.24,135.82 C516.90,136.70 517.42,142.92 518.38,149.65 C520.09,161.57 520.09,162.01 518.23,166.20 C516.36,170.41 513.00,174.27 513.00,172.20 C513.00,171.63 511.40,170.17 509.43,168.96 C506.62,167.22 504.89,166.87 501.22,167.28 C488.52,168.71 487.40,184.50 499.58,190.37 L 503.64 192.33 L 505.34 206.41 C506.28,214.16 507.45,225.10 507.94,230.72 C508.43,236.33 509.12,241.39 509.47,241.95 C510.34,243.36 515.70,246.42 521.04,248.70 C518.50,247.66 516.28,246.59 514.40,245.50 C512.06,244.12 509.89,243.00 509.57,243.00 C509.26,243.00 509.00,244.96 509.00,247.35 L 509.00 251.70 L 500.75 252.35 C498.34,252.53 496.12,252.68 494.06,252.77 C494.52,252.59 494.70,252.32 494.50,252.00 C494.16,251.45 493.26,251.00 492.50,251.00 C491.74,251.00 490.84,251.45 490.50,252.00 ZM 447.31 457.63 C434.26,451.39 431.58,435.71 441.73,424.86 C444.22,422.20 448.73,418.85 451.79,417.41 C456.85,415.01 458.75,414.74 473.43,414.25 C487.26,413.79 489.71,413.94 490.82,415.29 C491.90,416.59 491.85,417.39 490.52,419.96 C489.64,421.66 489.19,423.50 489.53,424.04 C489.86,424.58 492.61,426.61 495.63,428.54 C500.33,431.54 501.08,432.45 500.81,434.74 C500.61,436.52 499.11,438.43 496.35,440.46 C470.19,459.65 470.96,459.24 460.50,459.73 C453.58,460.05 451.80,459.77 447.31,457.63 ZM 528.26 542.44 C532.26,544.44 534.90,545.00 540.24,545.00 C550.89,545.00 556.61,541.26 561.71,530.97 C567.47,519.36 573.00,506.55 573.00,504.84 C573.00,501.64 568.36,500.82 549.50,500.66 L 531.50 500.50 L 525.50 503.50 C520.52,505.99 519.10,507.30 517.16,511.22 C510.87,523.89 515.15,535.91 528.26,542.44 ZM 601.58 486.53 C598.00,482.16 593.40,473.27 594.27,472.40 C594.51,472.15 596.69,471.38 599.10,470.67 L 602.86 469.58 C603.03,469.81 603.18,470.03 603.31,470.24 C605.97,474.46 611.31,479.15 615.08,480.59 C620.49,482.63 628.49,481.62 632.82,478.35 C633.94,477.50 634.95,476.66 635.86,475.82 C634.17,477.64 632.61,479.00 631.97,479.00 C631.54,479.00 630.00,481.02 628.55,483.50 L 625.92 488.00 L 618.21 488.03 C613.02,488.05 609.87,488.54 608.56,489.53 C605.83,491.59 605.67,491.52 601.58,486.53 ZM 447.64 443.90 C449.14,446.04 449.83,446.21 455.44,445.76 C464.56,445.02 472.00,440.81 472.00,436.37 C472.00,431.38 457.41,427.18 451.21,430.39 C445.92,433.13 444.33,439.17 447.64,443.90 ZM 643.38 235.90 L 644.31 235.02 L 643.08 212.17 L 649.50 209.60 L 645.25 209.24 L 642.37 209.00 L 647.39 209.00 C651.59,209.00 653.95,209.43 654.25,210.25 C654.51,210.94 654.37,214.43 653.93,218.00 C653.08,224.96 648.85,234.00 646.44,234.00 C645.96,234.00 644.78,234.76 643.38,235.90 ZM 498.43 347.04 C494.33,345.37 490.98,337.00 494.41,337.00 C495.68,337.00 503.00,345.85 503.00,347.38 C503.00,348.21 500.96,348.06 498.43,347.04 ZM 539.91 254.39 C547.38,255.80 555.83,256.38 569.23,256.72 C553.35,256.32 546.19,255.76 539.91,254.39 ZM 624.74 125.04 C616.90,123.36 599.12,123.82 575.81,126.15 C599.83,123.74 616.82,123.34 624.74,125.04 ZM 594.97 458.23 C594.40,455.41 594.67,452.03 595.66,447.50 C594.70,451.87 594.46,455.38 594.97,458.23 ZM 565.81 127.22 C558.14,128.10 549.99,129.16 541.50,130.38 C541.05,130.44 540.60,130.51 540.17,130.57 C547.58,129.47 555.94,128.36 564.50,127.37 C564.94,127.32 565.38,127.27 565.81,127.22 ZM 642.75 461.31 C642.56,463.97 642.20,466.28 641.66,467.76 C641.52,468.15 641.30,468.61 641.00,469.13 C641.25,468.62 641.47,468.10 641.67,467.57 C642.20,466.18 642.56,463.93 642.75,461.31 ZM 614.77 252.01 C619.93,250.28 625.20,248.04 629.73,245.70 C625.27,248.03 620.08,250.24 614.77,252.01 Z" fill="rgba(254,163,0,1)"/>
<path d="M 590.37 259.89 L 590.97 257.28 L 569.23 256.72 C546.60,256.15 538.10,254.89 524.58,250.09 C518.34,247.88 510.54,243.67 509.47,241.95 C509.12,241.39 508.43,236.33 507.94,230.72 C507.45,225.10 506.28,214.16 505.34,206.41 L 503.64 192.33 L 499.58 190.37 C487.40,184.50 488.52,168.71 501.22,167.28 C504.89,166.87 506.62,167.22 509.43,168.96 C511.40,170.17 513.00,171.63 513.00,172.20 C513.00,174.27 516.36,170.41 518.23,166.20 C520.09,162.01 520.09,161.57 518.38,149.65 C517.42,142.92 516.90,136.70 517.24,135.82 C517.88,134.16 522.59,133.10 541.50,130.38 C581.19,124.67 613.38,122.60 624.74,125.04 C629.24,126.00 629.59,126.30 629.78,129.29 C629.89,131.05 630.84,136.55 631.89,141.50 C634.32,153.02 636.67,166.34 638.06,176.50 C638.66,180.90 639.55,187.43 640.04,191.00 C640.53,194.57 640.95,200.06 640.97,203.19 L 641.00 208.89 L 644.36 209.17 C643.42,209.39 643.00,209.84 643.00,210.57 C643.00,211.47 643.36,211.81 644.30,211.68 L 643.08 212.17 L 644.31 235.02 L 640.34 238.79 C635.97,242.95 625.16,248.54 614.77,252.01 C611.07,253.24 608.28,254.65 608.58,255.13 C609.50,256.61 608.13,256.11 603.78,253.36 C599.98,250.97 599.36,250.85 597.12,252.11 C595.77,252.87 593.56,255.52 592.21,258.00 C590.61,260.96 589.97,261.61 590.37,259.89 ZM 615.08 480.59 C611.31,479.15 605.97,474.46 603.31,470.24 C602.36,468.73 600.30,466.38 598.73,465.00 C594.68,461.45 593.76,456.18 595.66,447.50 C596.50,443.65 597.26,438.72 597.34,436.55 C597.49,432.81 597.30,432.54 594.00,431.72 C584.65,429.41 582.68,428.45 579.30,424.56 C574.26,418.77 572.69,414.59 573.48,409.07 C574.50,401.94 577.56,396.69 583.88,391.19 C593.98,382.40 599.27,379.84 609.00,379.04 C617.17,378.37 617.70,378.46 622.81,381.30 C631.85,386.33 638.82,396.67 638.94,405.25 C639.01,409.51 640.26,409.95 645.14,407.43 C646.82,406.56 648.42,406.09 648.71,406.38 C649.86,407.53 650.98,416.60 650.39,419.95 C649.73,423.63 646.08,433.12 644.98,434.00 C644.63,434.27 643.54,435.89 642.56,437.59 C641.00,440.26 640.91,441.37 641.88,445.88 C643.30,452.51 643.20,463.59 641.67,467.57 C640.16,471.53 637.41,474.87 632.82,478.35 C628.49,481.62 620.49,482.63 615.08,480.59 ZM 691.50 332.19 C678.67,326.76 670.14,318.39 667.50,308.64 C665.79,302.32 665.78,301.61 667.34,295.98 C668.26,292.71 670.91,286.82 673.25,282.91 C680.07,271.48 687.48,266.83 698.95,266.77 C707.39,266.73 717.51,271.12 725.87,278.43 C732.27,284.03 735.79,295.54 733.80,304.41 C732.64,309.58 727.28,319.19 722.38,324.89 C715.23,333.20 701.53,336.44 691.50,332.19 ZM 597.41 184.10 C598.35,183.06 599.17,180.86 599.21,179.22 C599.29,176.36 599.46,176.25 603.03,176.73 C608.46,177.46 613.49,175.41 617.36,170.89 C621.41,166.16 622.01,163.14 621.04,152.28 C620.46,145.79 619.73,143.19 617.58,139.95 C614.62,135.48 608.51,132.04 603.50,132.04 C595.41,132.04 587.16,139.41 586.25,147.44 C585.39,155.15 586.90,164.82 589.33,167.16 L 591.50 169.25 L 589.23 168.08 C585.53,166.17 584.69,167.61 585.28,174.85 C585.72,180.38 586.23,181.80 588.46,183.72 C591.69,186.50 595.11,186.64 597.41,184.10 ZM 593.12 213.12 C596.53,209.28 596.99,208.16 596.86,204.12 C596.67,198.12 594.85,194.65 590.26,191.53 C586.26,188.81 582.13,188.27 580.20,190.20 C579.42,190.98 579.00,191.02 579.00,190.32 C579.00,189.73 577.63,188.98 575.95,188.64 C574.27,188.30 570.70,186.18 568.03,183.93 C563.98,180.51 562.41,179.81 558.70,179.75 C550.23,179.63 543.58,187.39 544.73,196.07 C545.22,199.78 546.24,201.40 551.03,206.10 C560.28,215.17 567.58,218.00 580.87,217.69 L 589.23 217.50 ZM 413.07 374.27 C404.74,370.87 399.91,366.01 397.63,358.77 C395.95,353.44 395.95,352.82 397.56,347.09 C399.94,338.58 401.46,337.60 405.14,342.20 C410.83,349.29 424.65,356.00 433.57,356.00 C438.94,356.00 446.08,352.99 448.74,349.60 C449.87,348.17 451.25,347.00 451.82,347.00 C453.71,347.00 457.00,352.22 457.00,355.21 C457.00,358.82 452.18,364.00 448.83,364.00 C447.29,364.00 445.09,365.64 442.32,368.85 C440.02,371.52 436.58,374.45 434.67,375.35 C429.43,377.84 420.73,377.41 413.07,374.27 ZM 576.66 174.75 C580.44,170.53 581.32,166.57 580.57,157.27 C580.18,152.51 579.28,147.21 578.57,145.51 C575.63,138.48 566.41,134.00 558.99,136.00 C554.17,137.30 548.72,141.86 546.99,146.03 C545.41,149.85 546.15,167.26 547.98,169.48 C548.68,170.32 550.75,171.00 552.59,171.00 C554.42,171.00 558.31,171.95 561.21,173.12 C572.44,177.62 573.95,177.78 576.66,174.75 ZM 648.45 209.51 L 649.50 209.60 L 648.21 210.11 C648.46,209.89 648.54,209.68 648.45,209.51 Z" fill="rgba(254,197,182,1)"/>
<path d="M 528.26 542.44 C515.15,535.91 510.87,523.89 517.16,511.22 C519.10,507.30 520.52,505.99 525.50,503.50 L 531.50 500.50 L 549.50 500.66 C568.36,500.82 573.00,501.64 573.00,504.84 C573.00,506.55 567.47,519.36 561.71,530.97 C556.61,541.26 550.89,545.00 540.24,545.00 C534.90,545.00 532.26,544.44 528.26,542.44 ZM 447.64 443.90 C444.33,439.17 445.92,433.13 451.21,430.39 C457.41,427.18 472.00,431.38 472.00,436.37 C472.00,440.81 464.56,445.02 455.44,445.76 C449.83,446.21 449.14,446.04 447.64,443.90 ZM 490.50 252.00 C490.84,251.45 491.74,251.00 492.50,251.00 C493.26,251.00 494.16,251.45 494.50,252.00 C494.85,252.57 493.99,253.00 492.50,253.00 C491.01,253.00 490.15,252.57 490.50,252.00 ZM 643.00 210.57 C643.00,209.47 643.96,209.00 646.20,209.00 C649.62,209.00 649.12,210.29 645.25,211.45 C643.58,211.96 643.00,211.73 643.00,210.57 Z" fill="rgba(255,196,1,1)"/>
</g>
</svg>