<svg xmlns="http://www.w3.org/2000/svg" width="1366" height="757" viewBox="0 0 1366 757">
<g>
<path d="M 867.23 178.44 C871.78,182.98 875.82,186.76 876.22,186.85 C876.65,186.94 881.68,183.20 892.04,175.07 C890.03,176.66 888.44,177.92 887.39,178.75 C875.35,188.27 875.35,188.27 877.78,191.71 C885.91,203.22 890.12,217.59 893.47,245.15 C901.11,308.08 906.47,343.70 914.53,385.26 C917.38,399.98 917.68,411.33 915.40,419.07 C909.39,439.52 891.84,457.02 870.75,463.58 L 865.00 465.37 L 865.00 527.72 L 864.50 465.51 L 860.50 466.00 C858.30,466.26 852.22,466.49 847.00,466.49 C838.24,466.50 837.48,466.34 837.26,464.50 C837.13,463.40 836.35,458.45 835.54,453.50 C832.52,435.28 832.17,426.71 832.88,388.00 C833.00,381.67 832.61,374.55 832.02,372.16 C829.66,362.60 823.32,353.51 814.40,346.92 C811.17,344.54 809.00,342.17 809.00,341.05 C809.00,339.81 811.43,337.54 815.97,334.52 C824.39,328.92 831.86,320.77 836.14,312.53 L 839.30 306.42 L 846.47 306.46 C852.63,306.49 854.22,306.12 857.74,303.79 C864.73,299.16 867.39,294.74 867.83,287.01 C868.25,279.65 867.05,276.24 862.60,272.08 C860.05,269.69 860.00,269.41 860.00,255.94 C860.00,244.62 859.57,240.58 857.56,232.86 C853.06,215.58 846.91,204.89 835.09,193.77 C821.63,181.10 809.05,176.00 791.30,176.00 C774.76,176.00 761.19,181.44 748.35,193.23 C744.12,197.11 743.74,197.27 744.27,195.00 C746.87,183.70 748.11,177.75 748.61,172.67 C748.73,176.47 748.94,179.00 749.17,179.00 C749.54,179.00 751.12,177.73 752.67,176.18 C762.04,166.83 778.18,159.12 792.83,157.00 C813.91,153.95 834.49,157.50 851.62,167.12 C854.44,168.71 857.23,170.00 857.83,170.00 C858.35,170.00 872.53,158.94 890.85,144.27 C881.40,151.89 873.30,158.45 869.23,161.78 L 858.97 170.19 ZM 358.50 169.86 C359.60,170.45 363.13,170.95 366.35,170.97 C371.69,171.00 372.50,170.70 375.60,167.60 C377.47,165.73 379.00,163.48 379.00,162.60 C379.00,161.19 381.19,161.00 397.26,161.00 C407.30,161.00 417.06,161.44 418.96,161.99 C421.37,162.68 422.72,162.60 423.40,161.41 C423.24,163.71 424.06,164.29 428.25,167.06 C433.33,170.42 437.56,175.26 441.39,182.11 L 443.29 185.50 L 448.31 165.39 C445.70,176.01 443.78,184.13 443.60,185.50 C443.46,186.60 443.06,188.18 442.71,189.00 C441.50,191.83 439.16,203.45 439.64,204.23 C439.90,204.65 439.64,205.00 439.06,205.00 C438.48,205.00 438.01,205.56 438.03,206.25 C438.09,209.37 431.47,236.00 430.64,236.00 C430.12,236.00 427.18,237.24 424.10,238.75 L 418.50 241.50 L 364.85 241.78 C312.56,242.04 311.07,242.00 305.93,239.97 C303.03,238.83 299.39,236.99 297.83,235.88 L 295.01 233.87 L 288.94 238.84 C291.81,236.44 294.00,234.20 294.00,233.60 C294.00,232.93 292.70,231.13 291.11,229.60 C289.51,228.08 286.70,223.86 284.86,220.22 C281.65,213.90 281.50,213.12 281.50,202.55 C281.50,192.57 281.76,190.97 284.20,186.00 C285.69,182.98 289.24,178.15 292.10,175.28 C297.23,170.12 297.26,170.05 294.90,169.15 C293.06,168.45 290.33,166.67 287.40,164.39 C295.15,170.16 296.58,170.38 301.83,167.84 C305.89,165.87 308.88,165.53 329.29,164.67 L 352.19 163.70 L 354.34 166.25 C355.53,167.64 357.40,169.27 358.50,169.86 ZM 387.53 587.75 C387.16,551.03 386.65,515.95 386.30,501.69 C386.70,513.63 387.35,550.45 387.80,587.25 C388.28,626.72 389.01,659.34 389.42,659.75 C389.83,660.16 399.46,660.50 410.83,660.50 L 431.50 660.50 L 431.50 638.00 C431.50,630.01 431.34,609.16 431.10,584.50 C431.39,606.05 431.68,624.82 431.88,634.00 L 432.50 662.50 L 445.50 663.08 C452.65,663.40 459.85,664.22 461.50,664.89 C470.96,668.75 476.17,675.67 476.37,684.69 C476.54,691.96 474.60,693.60 464.74,694.48 C454.09,695.43 311.81,694.65 309.71,693.63 C306.98,692.30 304.84,687.29 304.26,680.90 C303.84,676.29 304.15,674.32 305.82,671.12 C307.69,667.54 308.01,664.33 308.95,640.31 C308.99,639.27 309.03,638.23 309.07,637.19 C308.52,652.25 308.18,665.49 308.44,665.90 C308.69,666.31 311.29,666.31 314.20,665.90 C317.12,665.49 327.38,665.11 337.00,665.06 C346.62,665.01 355.02,664.64 355.67,664.23 C356.61,663.63 357.48,654.27 359.35,616.21 C358.45,636.70 357.80,652.25 357.72,655.50 L 357.50 664.50 L 369.00 665.22 C375.33,665.61 381.40,666.11 382.50,666.33 C383.60,666.55 385.36,666.79 386.41,666.86 C388.29,667.00 388.31,665.46 387.53,587.75 ZM 650.88 269.06 C646.09,271.50 641.60,271.47 636.56,268.95 C630.53,265.95 628.09,263.11 626.34,257.08 C624.98,252.41 624.92,250.58 625.93,245.06 C626.59,241.47 627.61,237.97 628.19,237.27 C628.77,236.57 628.99,236.00 628.67,236.00 C628.36,236.00 628.57,234.65 629.15,233.00 C630.18,230.05 630.27,230.01 635.62,230.64 C640.95,231.27 641.11,231.22 644.79,227.34 C647.37,224.63 648.63,222.33 648.80,220.00 C649.11,215.94 649.23,215.79 652.19,215.81 C665.91,215.86 671.16,226.83 665.88,244.43 C660.88,261.10 658.35,265.25 650.88,269.06 ZM 520.05 240.97 C511.95,245.10 502.35,242.51 497.25,234.80 C494.78,231.07 494.50,229.79 494.54,222.08 C494.56,217.36 494.85,212.60 495.19,211.50 C495.53,210.40 496.11,208.33 496.48,206.90 C497.09,204.49 497.48,204.34 501.82,204.70 C504.50,204.92 507.55,204.53 508.97,203.78 C512.59,201.86 515.67,196.77 515.41,193.11 C515.18,189.69 517.65,187.50 520.79,188.35 C521.73,188.61 523.72,189.08 525.21,189.41 C526.69,189.75 529.10,191.58 530.56,193.48 C534.53,198.69 535.30,203.71 533.46,212.27 C532.61,216.25 531.43,222.09 530.85,225.25 C529.55,232.27 525.48,238.21 520.05,240.97 ZM 352.93 211.70 C355.99,212.91 360.62,213.92 363.21,213.95 C377.41,214.10 391.68,201.47 390.80,189.52 C390.69,188.07 390.70,187.10 390.24,186.49 C389.24,185.17 386.00,185.56 374.46,186.54 C365.73,187.29 356.00,185.73 344.18,181.67 C337.94,179.53 337.84,179.52 336.43,181.44 C334.18,184.50 334.68,191.44 337.57,197.13 C341.12,204.14 346.35,209.10 352.93,211.70 ZM 749.00 350.68 C744.33,352.98 740.05,354.87 739.50,354.89 C738.25,354.94 718.65,333.66 715.82,329.18 C714.12,326.50 713.85,324.93 714.34,320.75 C715.33,312.43 719.42,295.98 720.42,296.31 C720.93,296.48 721.91,299.35 722.59,302.68 C724.70,313.06 728.07,318.98 737.80,329.39 C740.88,332.69 750.30,339.05 754.96,340.98 C760.39,343.23 758.76,345.88 749.00,350.68 ZM 389.97 146.52 C388.39,147.33 386.46,148.00 385.68,148.00 C383.17,148.00 379.18,144.06 377.96,140.38 C374.38,129.54 384.60,119.99 391.29,127.93 C396.26,133.84 395.57,143.62 389.97,146.52 ZM 347.08 145.42 C341.74,151.10 333.00,146.35 333.00,137.78 C333.00,127.61 340.11,122.75 346.69,128.41 C349.19,130.56 349.50,131.49 349.50,136.83 C349.50,141.81 349.09,143.28 347.08,145.42 ZM 801.98 275.01 C797.27,277.53 792.46,275.26 790.96,269.81 C788.95,262.55 793.62,255.00 800.10,255.00 C804.78,255.00 808.00,258.58 808.00,263.77 C808.00,267.61 804.86,273.47 801.98,275.01 ZM 757.33 264.90 C754.39,266.23 754.03,266.23 751.50,264.85 C748.32,263.10 747.00,260.87 747.00,257.21 C747.00,250.46 752.14,244.00 757.50,244.00 C760.48,244.00 764.00,248.64 764.00,252.57 C764.00,257.08 760.57,263.42 757.33,264.90 ZM 464.29 426.58 C464.88,424.40 464.06,423.85 462.13,423.05 C460.06,422.20 458.71,420.54 457.49,417.34 C456.55,414.86 454.47,411.50 452.87,409.87 L 449.97 406.90 L 434.74 407.21 C426.36,407.38 418.71,407.90 417.75,408.36 C416.31,409.06 416.00,408.75 416.00,406.61 L 416.00 404.00 L 455.59 404.00 L 456.72 408.25 C458.42,414.59 463.25,420.65 471.80,426.99 C468.44,424.70 465.78,423.00 465.53,423.00 C465.24,423.00 465.00,423.63 465.00,424.40 C465.00,424.68 464.74,425.46 464.29,426.58 ZM 381.00 415.00 C381.00,421.67 380.61,426.00 380.00,426.00 C379.40,426.00 378.99,422.07 378.98,416.25 C378.98,410.55 378.62,407.05 378.12,407.83 C377.45,408.90 377.16,408.85 376.66,407.55 C376.11,406.13 373.34,405.95 353.05,406.04 C338.82,406.10 329.38,405.74 328.28,405.10 C327.02,404.36 334.46,404.05 353.75,404.03 L 381.00 404.00 ZM 269.30 401.16 C269.48,402.31 269.75,402.86 270.12,403.10 C270.88,403.58 280.50,403.99 291.50,404.02 C308.63,404.07 311.14,404.27 309.00,405.39 C307.10,406.39 304.34,406.50 297.50,405.86 C287.18,404.90 277.05,405.37 274.09,406.95 C272.41,407.85 272.23,408.47 273.03,410.58 C273.56,411.98 274.00,415.03 274.00,417.35 C274.00,432.06 287.25,452.83 304.25,465.28 C292.68,456.83 282.96,444.81 276.83,431.29 C273.47,423.88 269.64,408.68 270.28,405.32 C270.52,404.04 270.28,403.00 269.74,403.00 C269.55,403.00 269.40,402.34 269.30,401.16 ZM 447.52 102.93 C446.84,111.22 445.10,118.68 442.03,126.16 C442.28,125.46 442.54,124.74 442.80,123.98 C445.40,116.56 446.89,110.10 447.52,102.93 ZM 473.57 89.13 C469.43,93.19 466.09,98.44 463.88,104.77 C463.83,104.92 463.76,105.13 463.68,105.39 C463.98,104.33 464.21,103.59 464.34,103.24 C466.39,97.70 469.60,92.92 473.57,89.13 ZM 514.96 83.57 C507.13,79.78 499.17,78.64 491.85,79.83 C495.87,79.13 500.06,79.14 504.25,79.96 C508.22,80.73 511.50,81.73 514.96,83.57 ZM 480.67 432.89 C481.65,433.48 482.66,434.08 483.71,434.68 C491.35,439.07 494.27,440.88 494.72,441.82 C493.90,440.86 491.68,439.34 488.25,437.44 C486.27,436.35 483.48,434.67 480.67,432.89 ZM 748.31 154.89 C747.89,151.19 747.18,148.88 745.76,145.78 C744.20,142.37 742.24,139.32 739.95,136.65 C742.25,139.31 744.22,142.37 745.82,145.78 C747.39,149.12 748.04,150.89 748.31,154.89 ZM 430.55 146.69 C429.47,148.26 428.33,149.86 427.13,151.50 C425.87,153.23 424.62,155.85 423.98,157.97 C423.98,157.96 423.98,157.94 423.98,157.92 C423.99,156.36 426.18,152.47 429.53,148.04 C429.89,147.58 430.22,147.13 430.55,146.69 ZM 879.30 602.27 C876.47,599.82 872.58,596.30 867.00,591.28 C866.85,591.15 866.72,590.92 866.60,590.54 C866.65,590.61 866.70,590.67 866.75,590.72 C867.71,591.79 872.38,596.12 877.11,600.33 C877.91,601.04 878.64,601.69 879.30,602.27 ZM 270.96 146.97 C266.32,140.06 262.89,132.75 260.39,124.50 C262.84,132.58 266.48,140.24 270.96,146.97 ZM 272.38 348.23 L 271.07 357.86 C270.58,361.51 270.04,368.39 269.66,375.44 C270.00,368.64 270.50,362.11 271.07,357.86 L 272.38 348.23 ZM 287.99 239.61 L 287.75 239.81 C284.95,242.10 280.57,246.12 276.56,250.02 C280.75,245.92 285.21,241.83 287.75,239.80 C287.83,239.74 287.91,239.67 287.99,239.61 ZM 439.13 461.47 C442.67,458.53 446.25,454.95 449.53,451.11 C446.26,454.96 442.72,458.51 439.13,461.47 ZM 940.14 104.70 C942.50,102.83 944.06,101.59 944.63,101.15 C946.62,99.63 948.30,97.84 948.82,96.74 C948.30,97.84 946.62,99.63 944.64,101.15 C943.92,101.71 942.35,102.95 940.14,104.70 ZM 890.11 607.42 C889.12,607.55 888.38,607.68 887.65,607.65 C887.45,607.64 887.24,607.61 887.04,607.57 C887.91,607.70 888.83,607.59 890.11,607.42 ZM 732.17 129.88 C726.89,126.50 720.66,124.53 713.84,124.18 C720.67,124.53 726.88,126.49 732.17,129.88 ZM 276.58 154.38 C276.07,153.81 275.60,153.25 275.16,152.70 C274.91,152.39 274.66,152.07 274.42,151.75 C275.12,152.65 275.85,153.53 276.58,154.38 ZM 539.99 104.54 C536.84,101.48 534.05,98.81 531.57,96.50 C534.06,98.82 536.84,101.48 539.99,104.54 ZM 306.80 467.07 C306.85,467.10 306.90,467.13 306.95,467.17 C306.93,467.15 306.90,467.13 306.88,467.12 C306.85,467.10 306.82,467.08 306.80,467.07 Z" fill="rgba(56,56,56,1)"/>
<path d="M 381.00 415.00 L 381.00 427.00 L 416.00 427.00 L 416.00 406.61 C416.00,408.75 416.31,409.06 417.75,408.36 C418.71,407.90 426.36,407.38 434.74,407.21 L 449.97 406.90 L 452.87 409.87 C454.47,411.50 456.55,414.86 457.49,417.34 C458.71,420.54 460.06,422.20 462.13,423.05 C465.62,424.50 465.51,425.12 459.80,436.19 C454.83,445.83 445.33,456.99 436.54,463.50 L 429.80 468.50 L 430.65 542.00 C431.12,582.42 431.50,625.62 431.50,638.00 L 431.50 660.50 L 410.83 660.50 C399.46,660.50 389.83,660.16 389.42,659.75 C389.01,659.34 388.28,626.72 387.80,587.25 C387.32,547.79 386.60,508.30 386.21,499.50 L 385.50 483.50 L 376.00 482.89 C370.42,482.53 366.25,482.67 365.89,483.22 C365.55,483.74 364.97,491.21 364.60,499.83 C358.57,638.36 357.22,663.24 355.67,664.23 C355.02,664.64 346.62,665.01 337.00,665.06 C327.38,665.11 317.12,665.49 314.20,665.90 C311.29,666.31 308.69,666.31 308.44,665.90 C308.00,665.18 309.35,625.40 310.51,605.00 C312.38,572.23 315.71,474.14 315.00,473.01 C314.73,472.57 311.03,469.90 306.79,467.06 C288.59,454.90 274.00,432.78 274.00,417.35 C274.00,415.03 273.56,411.98 273.03,410.58 C272.23,408.47 272.41,407.85 274.09,406.95 C277.05,405.37 287.18,404.90 297.50,405.86 C304.34,406.50 307.10,406.39 309.00,405.39 C311.14,404.27 308.63,404.07 291.50,404.02 C280.50,403.99 270.88,403.58 270.12,403.10 C270.88,403.58 296.14,403.98 326.25,403.98 L 381.00 404.00 L 353.75 404.03 C334.46,404.05 327.02,404.36 328.28,405.10 C329.38,405.74 338.82,406.10 353.05,406.04 C373.34,405.95 376.11,406.13 376.66,407.55 C377.16,408.85 377.45,408.90 378.12,407.83 C378.62,407.05 378.98,410.55 378.98,416.25 C378.99,422.07 379.40,426.00 380.00,426.00 C380.61,426.00 381.00,421.67 381.00,415.00 ZM 424.48 156.10 C424.87,153.38 425.12,150.33 425.05,148.00 C424.54,129.73 415.15,114.07 395.14,98.11 C384.22,89.41 355.10,69.00 353.59,69.00 C352.98,69.00 343.19,78.15 331.83,89.33 C303.71,117.01 298.22,125.82 296.07,146.76 C295.24,154.83 295.49,166.54 296.40,169.37 C294.03,169.16 291.46,167.45 286.30,163.57 C274.77,154.90 265.24,140.51 260.39,124.50 C257.96,116.46 257.66,113.85 257.59,100.00 C257.51,86.79 257.84,83.24 259.79,76.00 C267.19,48.58 287.06,24.45 312.47,12.04 C328.36,4.27 336.30,2.55 356.00,2.60 C370.92,2.65 373.36,2.91 381.50,5.33 C407.02,12.95 427.69,29.90 438.81,52.34 C444.82,64.49 447.08,73.46 447.72,87.76 C448.37,102.20 447.07,111.78 442.80,123.98 C439.29,134.02 436.99,138.21 429.53,148.04 C427.12,151.23 425.31,154.14 424.48,156.10 ZM 423.33 161.52 C423.53,160.95 423.74,160.17 423.93,159.27 C423.85,160.27 423.66,161.01 423.33,161.52 ZM 301.67 167.92 C301.74,167.89 301.81,167.85 301.88,167.82 C303.04,167.26 304.12,166.83 305.56,166.48 C304.10,166.83 303.01,167.27 301.83,167.84 C301.77,167.87 301.72,167.89 301.67,167.92 Z" fill="rgba(29,91,127,1)"/>
<path d="M 737.34 654.25 C737.05,655.32 737.73,655.91 738.85,656.07 C737.18,656.33 736.32,657.41 734.54,660.91 C732.62,664.72 731.26,666.09 728.53,666.99 C726.59,667.63 725.00,668.73 725.00,669.43 C725.00,670.50 723.08,676.25 720.73,682.71 C723.40,674.97 725.47,668.00 724.75,668.00 C724.61,668.00 715.95,665.03 705.50,661.41 C683.01,653.60 678.08,652.00 676.51,652.00 C675.94,652.00 674.90,654.03 674.04,656.71 C674.64,654.15 674.76,651.94 674.12,651.06 C670.88,646.60 670.59,644.96 672.02,639.18 C673.16,634.58 673.49,617.61 673.75,550.00 C673.88,516.20 673.86,486.40 673.73,472.56 C673.86,486.37 673.89,516.05 673.78,549.71 C673.50,631.78 673.53,632.87 675.39,629.21 C676.42,627.17 677.67,625.35 678.15,625.16 C680.81,624.14 682.72,619.53 690.58,595.20 C695.32,580.52 702.70,557.92 706.98,545.00 C711.27,532.08 716.43,516.27 718.47,509.88 L 722.17 498.26 L 757.83 497.71 C791.34,497.20 811.96,495.74 824.47,492.99 C826.66,492.51 828.68,492.35 828.97,492.64 C829.26,492.93 829.56,502.02 829.63,512.83 C829.80,538.35 831.14,545.28 838.68,559.52 C841.10,564.09 853.50,578.55 860.08,584.47 L 864.50 588.45 L 864.76 527.97 C864.79,520.22 864.81,512.76 864.82,505.88 L 865.00 527.72 C865.43,581.32 865.71,590.12 867.00,591.28 C882.27,605.03 884.90,607.51 887.65,607.65 C888.38,607.68 889.12,607.55 890.11,607.42 C894.30,606.86 894.80,607.09 901.25,612.44 C908.40,618.38 909.20,620.27 906.80,625.55 C905.79,627.75 905.85,628.34 907.13,629.05 C907.97,629.52 911.14,631.95 914.18,634.45 C916.98,636.76 919.46,638.68 920.01,638.96 C920.00,638.97 920.00,638.97 920.00,638.97 C919.72,638.96 916.81,636.71 913.52,633.97 C910.23,631.24 906.99,629.00 906.33,629.00 C905.66,629.00 900.73,634.29 895.36,640.75 C889.99,647.21 883.65,654.64 881.27,657.25 C878.30,660.48 877.19,661.98 877.99,664.12 C876.52,662.53 875.37,662.93 873.41,665.10 C870.60,668.21 866.10,670.24 863.48,669.59 C862.22,669.27 858.50,666.08 855.22,662.50 L 849.27 656.00 L 849.75 656.00 L 850.44 652.75 C851.12,649.57 850.63,649.01 827.71,626.50 C805.02,604.22 798.25,596.89 792.63,588.50 L 789.94 584.50 L 790.22 617.67 L 790.50 650.84 L 789.98 616.67 L 789.46 582.50 L 785.87 574.50 C783.90,570.10 780.15,559.86 777.52,551.75 C774.90,543.64 772.36,537.00 771.88,537.00 C771.40,537.00 771.00,537.15 771.00,537.33 C771.00,537.51 765.97,552.24 759.81,570.08 L 748.63 602.50 L 748.06 627.34 C748.04,628.53 748.01,629.67 747.98,630.75 C747.98,630.60 747.98,630.45 747.98,630.30 C747.97,616.51 747.64,610.01 747.00,611.00 C746.47,611.83 743.94,618.76 741.38,626.42 C737.20,638.90 736.84,640.68 737.90,643.60 C738.96,646.52 738.84,648.71 737.34,654.25 ZM 837.63 465.57 C838.33,466.41 840.37,466.50 847.00,466.49 C851.05,466.49 855.62,466.35 858.49,466.17 C858.47,466.17 858.44,466.17 858.42,466.18 C855.26,466.67 849.26,466.95 845.09,466.79 C840.04,466.60 838.28,466.40 837.63,465.57 ZM 880.98 668.52 C881.19,668.78 881.42,669.05 881.65,669.33 C882.94,670.88 884.00,672.74 884.00,673.46 C884.00,673.65 883.84,673.97 883.56,674.38 C884.05,673.45 883.72,672.82 883.00,671.69 C882.51,670.92 881.75,669.73 880.98,668.52 ZM 639.03 681.71 C639.20,679.49 639.80,677.30 640.86,675.69 C642.27,673.57 643.47,672.15 645.07,671.22 C641.47,673.79 639.46,677.83 639.03,681.71 ZM 871.98 688.67 C870.48,693.04 870.88,697.45 873.44,700.92 C870.77,697.30 870.33,693.05 871.98,688.67 ZM 746.58 652.41 C746.23,653.19 745.77,653.58 745.14,654.09 C744.45,654.64 743.48,655.14 742.47,655.49 C743.59,655.06 744.69,654.41 745.55,653.55 C745.95,653.14 746.29,652.79 746.58,652.41 ZM 862.54 465.75 L 864.50 465.51 L 864.51 466.23 C864.25,465.90 863.62,465.74 862.54,465.75 ZM 685.94 700.93 C685.46,700.81 684.96,700.69 684.46,700.56 C679.80,699.41 674.60,698.20 669.85,697.15 C675.24,698.33 681.16,699.71 685.94,700.93 ZM 712.39 703.13 C711.26,704.36 709.62,704.98 706.50,704.87 C709.53,704.93 711.29,704.33 712.39,703.13 ZM 640.43 689.01 C640.31,688.83 640.20,688.63 640.10,688.42 C640.20,688.63 640.31,688.82 640.43,689.01 ZM 669.58 666.70 C669.63,666.64 669.68,666.58 669.73,666.52 C669.69,666.57 669.64,666.63 669.60,666.67 C669.60,666.68 669.59,666.69 669.58,666.70 Z" fill="rgba(71,179,231,1)"/>
<path d="M 867.23 178.44 L 858.97 170.19 L 869.23 161.78 C882.52,150.89 938.98,105.50 944.64,101.15 C947.04,99.31 948.99,97.06 948.99,96.15 C948.98,95.24 946.39,91.80 943.23,88.50 C927.73,72.30 926.64,70.43 932.25,69.63 C937.14,68.93 969.74,66.04 984.50,64.99 C991.65,64.48 1000.99,63.76 1005.25,63.38 C1011.14,62.87 1013.00,63.01 1013.00,63.96 C1013.00,65.12 1007.60,81.14 994.30,119.50 C991.24,128.30 988.09,136.18 987.29,137.00 C986.00,138.32 984.63,137.23 975.56,127.59 L 965.30 116.68 L 960.26 120.59 C957.49,122.74 944.04,133.50 930.36,144.49 C893.52,174.11 877.02,187.02 876.22,186.85 C875.82,186.76 871.78,182.98 867.23,178.44 Z" fill="rgba(91,101,109,1)"/>
<path d="M 463.66 105.45 C459.73,119.19 443.19,185.37 443.62,185.89 C445.01,187.55 447.34,181.79 450.00,170.18 C451.72,162.66 453.96,153.80 454.98,150.50 C455.99,147.20 457.36,141.57 458.01,138.00 C458.67,134.43 460.24,128.12 461.52,124.00 C462.80,119.88 464.15,114.70 464.53,112.50 C464.91,110.30 465.81,107.56 466.53,106.41 C467.25,105.26 468.37,102.36 469.01,99.96 C470.07,96.04 475.92,89.00 478.12,89.00 C478.52,89.00 479.00,88.28 479.18,87.40 C479.79,84.35 486.77,82.62 497.38,82.87 C513.95,83.27 516.09,84.53 540.18,108.24 C548.43,116.36 555.79,123.00 556.55,123.00 C557.31,123.00 558.39,123.87 558.96,124.92 C560.98,128.69 580.93,138.00 586.98,138.00 C588.10,138.00 590.69,138.90 592.74,140.00 C595.08,141.26 598.38,142.00 601.61,142.00 C604.44,142.00 608.49,142.61 610.62,143.36 C619.26,146.39 627.79,147.15 639.80,145.97 C646.14,145.35 652.26,144.22 653.41,143.47 C654.56,142.72 657.53,141.79 660.00,141.40 C662.47,141.02 669.67,138.48 676.00,135.75 C693.63,128.17 711.42,124.57 717.16,127.43 C718.92,128.31 721.12,128.78 722.07,128.48 C724.65,127.66 735.02,134.20 739.01,139.15 C740.93,141.54 743.47,146.27 744.66,149.65 C746.62,155.25 746.73,156.78 745.93,166.65 C745.45,172.62 745.30,178.31 745.61,179.30 C745.91,180.29 745.63,181.74 744.97,182.54 C744.31,183.33 744.02,184.60 744.31,185.37 C744.60,186.13 744.51,187.15 744.10,187.63 C743.68,188.11 742.75,190.40 742.02,192.72 C740.98,196.05 740.96,197.25 741.92,198.41 C743.73,200.59 740.19,216.00 737.88,216.00 C735.26,216.00 734.29,218.06 733.54,225.25 C733.05,229.98 733.18,232.00 733.96,232.00 C734.57,232.00 734.18,232.96 733.09,234.13 C731.08,236.29 727.00,247.74 727.00,251.22 C727.00,252.25 726.31,254.44 725.46,256.08 C724.49,257.95 724.14,260.25 724.52,262.28 C724.93,264.46 724.47,266.96 723.09,270.00 C721.96,272.48 721.03,275.85 721.01,277.50 C720.99,279.15 720.28,282.50 719.42,284.94 C718.57,287.38 717.82,291.21 717.76,293.44 C717.69,295.67 717.04,298.39 716.32,299.47 C715.59,300.56 715.00,302.45 715.00,303.69 C715.00,304.92 714.10,308.22 712.99,311.02 C711.44,314.97 711.23,316.56 712.08,318.14 C712.70,319.31 712.91,322.17 712.56,324.84 C711.92,329.81 712.45,331.26 715.27,332.30 C716.24,332.66 717.50,333.97 718.08,335.22 C721.01,341.53 723.41,344.75 729.19,350.10 C732.66,353.31 736.66,356.20 738.07,356.51 C740.93,357.14 749.09,365.14 756.88,374.95 C763.14,382.84 763.53,386.05 758.80,390.89 C748.99,400.93 724.83,406.70 688.40,407.70 L 667.31 408.29 L 656.17 397.08 C647.16,388.02 644.71,386.06 643.35,386.82 C642.43,387.34 640.06,387.55 638.08,387.30 C633.03,386.63 628.90,390.93 628.82,396.95 C628.75,402.11 627.39,402.79 621.75,400.46 C618.93,399.29 615.07,398.72 610.28,398.78 C603.97,398.86 602.70,399.19 600.29,401.43 C598.77,402.85 597.92,404.00 598.41,404.00 C598.90,404.00 598.34,404.84 597.15,405.87 C595.97,406.89 595.00,408.71 595.00,409.90 C595.00,411.09 594.33,412.32 593.51,412.63 C591.35,413.46 589.50,420.97 590.90,423.21 C591.51,424.18 592.05,427.12 592.12,429.74 C592.28,436.24 593.37,440.55 594.79,440.26 C595.43,440.12 596.75,441.21 597.70,442.67 C598.66,444.13 601.33,446.52 603.64,447.99 C605.95,449.45 607.54,451.06 607.17,451.57 C605.90,453.33 602.02,455.00 599.20,455.00 C597.64,455.00 594.14,455.63 591.43,456.40 C588.72,457.16 583.86,458.07 580.63,458.42 C575.78,458.94 574.54,458.75 573.51,457.35 C572.51,455.98 569.64,455.48 558.60,454.79 C550.81,454.31 544.26,454.32 543.37,454.82 C542.34,455.39 537.57,454.56 529.65,452.45 C509.54,447.09 496.41,441.88 495.47,438.89 C495.11,437.76 493.94,437.00 492.59,437.00 C491.33,437.00 489.27,436.10 488.00,435.00 C486.73,433.90 485.09,433.00 484.35,433.00 C483.61,433.00 483.00,432.56 483.00,432.02 C483.00,431.48 481.31,430.13 479.25,429.01 C469.57,423.77 465.00,420.21 465.00,417.92 C465.00,416.83 464.35,415.69 463.55,415.38 C461.87,414.74 459.56,408.51 460.46,407.06 C460.86,406.42 462.03,406.45 463.79,407.15 C467.99,408.80 487.91,408.64 491.50,406.92 C499.35,403.16 508.20,396.46 509.53,393.28 C510.29,391.46 511.72,389.67 512.70,389.31 C515.51,388.27 516.04,386.71 514.26,384.74 C512.88,383.21 512.81,382.41 513.81,379.64 C515.64,374.60 515.26,367.89 513.00,365.00 C511.92,363.62 511.03,362.16 511.02,361.75 C511.01,361.34 510.06,360.06 508.91,358.91 C507.67,357.67 507.02,356.04 507.31,354.91 C507.92,352.60 507.13,352.44 505.58,354.56 C504.57,355.95 504.18,355.89 502.07,354.06 C500.76,352.93 499.40,352.00 499.04,352.00 C498.67,352.00 497.50,351.21 496.44,350.24 C495.37,349.28 492.26,347.90 489.52,347.19 C486.79,346.47 484.31,345.57 484.02,345.17 C483.74,344.78 482.27,343.92 480.77,343.26 C478.36,342.20 478.11,341.68 478.68,338.78 C479.03,336.98 479.61,335.27 479.98,335.00 C482.03,333.46 481.63,330.79 478.77,326.82 C474.56,320.98 473.17,320.07 468.50,320.03 C464.84,320.00 455.40,322.82 455.21,324.00 C454.86,326.19 453.54,327.89 451.86,328.33 C450.75,328.62 449.62,329.74 449.33,330.83 C448.68,333.34 441.82,335.26 438.31,333.93 C436.97,333.42 434.16,333.00 432.07,333.00 C429.88,333.00 427.26,332.21 425.88,331.14 C424.57,330.11 422.38,328.94 421.00,328.52 C419.62,328.11 417.05,326.90 415.29,325.83 C412.75,324.29 411.39,324.07 408.79,324.78 C404.91,325.85 402.97,325.35 401.20,322.85 C399.72,320.76 378.24,309.97 375.09,309.73 C373.94,309.65 372.76,308.81 372.46,307.88 C372.17,306.95 371.26,305.93 370.45,305.62 C369.63,305.31 368.53,304.03 367.99,302.78 C367.45,301.52 366.62,299.83 366.15,299.00 C365.68,298.17 364.62,295.92 363.79,294.00 C362.96,292.08 361.27,288.32 360.03,285.67 C357.80,280.88 357.80,280.79 359.64,277.32 C360.66,275.39 362.72,272.94 364.21,271.87 C366.78,270.02 367.54,269.98 378.21,271.14 C390.72,272.50 422.92,272.93 423.65,271.75 C423.91,271.34 424.94,271.00 425.94,271.00 C426.95,271.00 428.00,270.10 428.29,269.00 C428.58,267.90 428.40,267.00 427.91,267.00 C426.47,267.00 426.84,264.54 429.07,259.33 C430.21,256.67 431.55,251.12 432.04,247.00 C433.12,237.93 433.58,235.68 434.80,233.31 C435.68,231.61 436.92,226.20 437.53,221.37 C437.68,220.20 438.51,218.15 439.38,216.83 C440.24,215.51 440.91,213.09 440.87,211.46 C440.73,206.59 441.93,198.79 443.01,197.48 C444.38,195.84 444.76,189.13 443.50,188.99 C442.87,188.92 441.40,193.67 440.44,197.90 C441.13,194.41 442.07,190.49 442.71,189.00 C443.06,188.18 443.46,186.60 443.60,185.50 C444.13,181.34 460.91,114.50 463.66,105.45 ZM 634.60 315.47 C647.13,318.64 662.37,315.65 675.67,307.40 C692.30,297.09 702.31,280.54 709.51,251.46 C711.90,241.78 712.16,239.16 711.72,229.00 C711.16,215.81 708.60,207.29 702.57,198.54 L 698.99 193.35 L 700.62 186.75 C702.60,178.73 701.89,173.63 698.49,171.40 C695.50,169.44 692.05,170.04 682.23,174.20 C678.23,175.90 674.66,177.00 674.31,176.64 C673.95,176.28 674.19,173.71 674.83,170.92 C676.36,164.28 676.31,163.33 674.39,162.60 C671.78,161.60 665.69,163.69 643.60,173.18 C613.89,185.94 604.30,189.00 594.01,189.00 C586.73,189.00 585.11,188.64 579.97,185.90 C574.55,183.02 569.08,177.94 559.60,167.00 C557.45,164.52 549.83,156.09 542.67,148.25 C528.15,132.37 526.05,131.19 523.96,137.75 C522.17,143.34 521.50,143.53 518.42,139.33 C506.15,122.56 498.12,122.19 496.31,138.30 C495.60,144.63 494.62,146.00 490.84,146.00 C482.15,146.00 468.50,158.68 461.13,173.61 C452.23,191.64 447.46,225.40 451.57,241.27 C457.08,262.52 474.25,279.10 495.21,283.41 C505.23,285.48 509.06,285.41 518.34,283.04 C526.95,280.84 532.59,277.83 541.44,270.72 L 547.50 265.85 L 548.14 274.79 C549.12,288.37 553.51,296.06 561.90,298.86 C573.10,302.61 583.93,297.00 590.12,284.25 C591.25,281.91 592.57,280.24 593.05,280.53 C593.53,280.83 595.39,283.83 597.19,287.20 C603.78,299.57 619.90,311.75 634.60,315.47 ZM 545.50 393.94 C553.56,396.31 562.33,393.96 567.25,388.12 C570.54,384.21 569.92,382.24 565.15,381.43 C563.14,381.09 555.89,379.55 549.03,378.02 C542.17,376.49 535.99,375.45 535.28,375.72 C534.58,375.99 534.00,377.31 534.00,378.64 C534.00,384.72 539.63,392.21 545.50,393.94 ZM 574.04 367.75 C581.88,371.77 592.94,369.70 598.00,363.28 C601.11,359.32 600.60,357.22 596.25,356.18 C586.68,353.88 568.03,350.86 567.07,351.46 C565.40,352.49 565.81,358.17 567.82,362.02 C568.96,364.18 571.31,366.35 574.04,367.75 ZM 526.00 357.92 C528.47,359.03 532.54,359.95 535.04,359.97 C543.78,360.03 553.84,352.37 549.99,348.59 C548.57,347.19 525.21,341.02 520.00,340.67 C517.64,340.51 517.50,340.78 517.53,345.52 C517.57,351.78 519.89,355.18 526.00,357.92 ZM 531.57 96.50 C524.38,89.83 519.51,85.98 514.96,83.57 C515.47,83.81 515.98,84.07 516.49,84.34 C519.65,86.01 524.27,89.72 531.57,96.50 ZM 491.85 79.83 C485.02,81.02 478.66,84.27 473.57,89.13 C478.67,84.13 484.98,80.95 491.85,79.83 Z" fill="rgba(121,193,17,1)"/>
<path d="M 747.21 194.27 C743.45,198.96 741.85,206.08 736.96,226.10 C730.13,254.04 727.73,263.56 726.00,269.50 C725.51,271.15 724.82,274.30 724.44,276.50 C724.07,278.70 723.09,282.98 722.28,286.00 C721.46,289.02 720.80,292.17 720.82,293.00 C720.86,294.61 721.37,297.45 722.11,300.61 C721.51,298.23 720.82,296.44 720.42,296.31 C719.42,295.98 715.33,312.43 714.34,320.75 C713.85,324.93 714.12,326.50 715.82,329.18 C718.65,333.66 738.25,354.94 739.50,354.89 C739.87,354.88 741.98,353.99 744.76,352.70 C741.94,354.17 740.00,355.31 740.00,355.55 C740.00,355.89 742.64,358.95 745.86,362.34 C750.36,367.08 753.96,371.18 756.60,374.60 C748.90,364.95 740.90,357.14 738.07,356.51 C736.66,356.20 732.66,353.31 729.19,350.10 C723.41,344.75 721.01,341.53 718.08,335.22 C717.50,333.97 716.24,332.66 715.27,332.30 C712.45,331.26 711.92,329.81 712.56,324.84 C712.91,322.17 712.70,319.31 712.08,318.14 C711.23,316.56 711.44,314.97 712.99,311.02 C714.10,308.22 715.00,304.92 715.00,303.69 C715.00,302.45 715.59,300.56 716.32,299.47 C717.04,298.39 717.69,295.67 717.76,293.44 C717.82,291.21 718.57,287.38 719.42,284.94 C720.28,282.50 720.99,279.15 721.01,277.50 C721.03,275.85 721.96,272.48 723.09,270.00 C724.47,266.96 724.93,264.46 724.52,262.28 C724.14,260.25 724.49,257.95 725.46,256.08 C726.31,254.44 727.00,252.25 727.00,251.22 C727.00,247.74 731.08,236.29 733.09,234.13 C734.18,232.96 734.57,232.00 733.96,232.00 C733.18,232.00 733.05,229.98 733.54,225.25 C734.29,218.06 735.26,216.00 737.88,216.00 C740.19,216.00 743.73,200.59 741.92,198.41 C740.96,197.25 740.98,196.05 742.02,192.72 C742.75,190.40 743.68,188.11 744.10,187.63 C744.51,187.15 744.60,186.13 744.31,185.37 C744.02,184.60 744.31,183.33 744.97,182.54 C745.63,181.74 745.91,180.29 745.61,179.30 C745.30,178.31 745.45,172.62 745.93,166.65 C746.73,156.78 746.62,155.25 744.66,149.65 C743.47,146.27 740.93,141.54 739.01,139.15 C735.02,134.20 724.65,127.66 722.07,128.48 C721.12,128.78 718.92,128.31 717.16,127.43 C711.42,124.57 693.63,128.17 676.00,135.75 C669.67,138.48 662.47,141.02 660.00,141.40 C657.53,141.79 654.56,142.72 653.41,143.47 C652.26,144.22 646.14,145.35 639.80,145.97 C627.79,147.15 619.26,146.39 610.62,143.36 C608.49,142.61 604.44,142.00 601.61,142.00 C598.38,142.00 595.08,141.26 592.74,140.00 C590.69,138.90 588.10,138.00 586.98,138.00 C580.93,138.00 560.98,128.69 558.96,124.92 C558.39,123.87 557.31,123.00 556.55,123.00 C555.79,123.00 548.43,116.36 540.18,108.24 C516.09,84.53 513.95,83.27 497.38,82.87 C486.77,82.62 479.79,84.35 479.18,87.40 C479.00,88.28 478.52,89.00 478.12,89.00 C475.92,89.00 470.07,96.04 469.01,99.96 C468.37,102.36 467.25,105.26 466.53,106.41 C465.81,107.56 464.91,110.30 464.53,112.50 C464.15,114.70 462.80,119.88 461.52,124.00 C460.24,128.12 458.67,134.43 458.01,138.00 C457.36,141.57 455.99,147.20 454.98,150.50 C453.96,153.80 451.72,162.66 450.00,170.18 C447.34,181.79 445.01,187.55 443.62,185.89 C443.15,185.33 462.45,108.34 464.34,103.24 C470.56,86.46 487.35,76.66 504.25,79.96 C515.27,82.11 520.92,85.99 539.99,104.54 C558.64,122.69 563.51,126.55 573.31,130.97 C580.18,134.07 607.20,141.18 619.29,143.07 C629.16,144.61 644.27,143.75 653.50,141.12 C657.35,140.03 668.48,136.17 678.23,132.56 C699.40,124.71 703.80,123.68 713.84,124.18 C728.16,124.91 739.81,132.79 745.76,145.78 C747.91,150.48 748.44,153.35 748.78,161.99 C749.18,172.11 748.65,175.94 744.27,195.00 C743.80,197.05 744.05,197.12 747.21,194.27 ZM 430.52 236.01 C430.57,236.00 430.61,236.00 430.64,236.00 C431.47,236.00 438.09,209.37 438.03,206.25 C438.01,205.56 438.48,205.00 439.06,205.00 C439.64,205.00 439.91,204.66 439.65,204.24 C438.86,202.97 442.42,188.88 443.50,188.99 C444.76,189.13 444.38,195.84 443.01,197.48 C441.93,198.79 440.73,206.59 440.87,211.46 C440.91,213.09 440.24,215.51 439.38,216.83 C438.51,218.15 437.68,220.20 437.53,221.37 C436.92,226.20 435.68,231.61 434.80,233.31 C433.58,235.68 433.12,237.93 432.04,247.00 C431.55,251.12 430.21,256.67 429.07,259.33 C426.84,264.54 426.47,267.00 427.91,267.00 C428.40,267.00 428.58,267.90 428.29,269.00 C428.00,270.10 426.95,271.00 425.94,271.00 C424.94,271.00 423.91,271.34 423.65,271.75 C422.92,272.93 390.72,272.50 378.21,271.14 C367.54,269.98 366.78,270.02 364.21,271.87 C362.72,272.94 360.66,275.39 359.64,277.32 C357.80,280.79 357.80,280.88 360.03,285.67 C361.27,288.32 362.96,292.08 363.79,294.00 C364.62,295.92 365.68,298.17 366.15,299.00 C366.62,299.83 367.45,301.52 367.99,302.78 C368.53,304.03 369.63,305.31 370.45,305.62 C371.26,305.93 372.17,306.95 372.46,307.88 C372.76,308.81 373.94,309.65 375.09,309.73 C378.24,309.97 399.72,320.76 401.20,322.85 C402.97,325.35 404.91,325.85 408.79,324.78 C411.39,324.07 412.75,324.29 415.29,325.83 C417.05,326.90 419.62,328.11 421.00,328.52 C422.38,328.94 424.57,330.11 425.88,331.14 C427.26,332.21 429.88,333.00 432.07,333.00 C434.16,333.00 436.97,333.42 438.31,333.93 C441.82,335.26 448.68,333.34 449.33,330.83 C449.62,329.74 450.75,328.62 451.86,328.33 C453.54,327.89 454.86,326.19 455.21,324.00 C455.32,323.31 458.60,322.06 462.04,321.14 C461.03,321.84 459.94,322.96 458.29,324.75 C455.87,327.36 452.23,331.66 450.20,334.30 C446.64,338.94 446.39,339.07 442.51,338.45 C438.54,337.81 413.07,329.43 406.77,326.69 C404.97,325.91 401.48,324.46 399.00,323.46 C396.52,322.46 392.12,320.60 389.22,319.32 C386.32,318.05 383.67,317.00 383.35,317.00 C382.16,317.00 370.41,308.10 367.31,304.85 C361.81,299.09 357.59,288.67 357.16,279.84 C356.96,275.67 356.81,273.03 358.02,271.41 C360.11,268.60 366.27,268.83 383.30,269.35 C394.96,269.71 408.33,270.25 413.00,270.56 C417.67,270.86 422.10,270.70 422.84,270.19 C424.80,268.84 431.97,236.78 430.52,236.01 ZM 494.75 441.90 C494.43,440.98 491.56,439.20 483.71,434.68 C467.57,425.40 459.09,417.09 456.72,408.25 L 455.66 404.29 C460.85,404.53 464.27,404.95 467.16,405.60 C476.46,407.72 486.92,407.13 493.35,404.13 C504.27,399.02 511.61,388.94 512.67,377.61 C513.48,368.96 512.01,365.26 505.21,358.83 C500.62,354.48 497.64,352.72 490.00,349.79 C484.77,347.80 479.26,345.89 477.75,345.56 C474.40,344.83 474.17,342.41 477.00,337.77 C480.10,332.69 479.67,327.06 475.88,323.19 C474.40,321.68 473.40,320.86 472.07,320.44 C474.30,321.10 475.86,322.79 478.77,326.82 C481.63,330.79 482.03,333.46 479.98,335.00 C479.61,335.27 479.03,336.98 478.68,338.78 C478.11,341.68 478.36,342.20 480.77,343.26 C482.27,343.92 483.74,344.78 484.02,345.17 C484.31,345.57 486.79,346.47 489.52,347.19 C492.26,347.90 495.37,349.28 496.44,350.24 C497.50,351.21 498.67,352.00 499.04,352.00 C499.40,352.00 500.76,352.93 502.07,354.06 C504.18,355.89 504.57,355.95 505.58,354.56 C507.13,352.44 507.92,352.60 507.31,354.91 C507.02,356.04 507.67,357.67 508.91,358.91 C510.06,360.06 511.01,361.34 511.02,361.75 C511.03,362.16 511.92,363.62 513.00,365.00 C515.26,367.89 515.64,374.60 513.81,379.64 C512.81,382.41 512.88,383.21 514.26,384.74 C516.04,386.71 515.51,388.27 512.70,389.31 C511.72,389.67 510.29,391.46 509.53,393.28 C508.20,396.46 499.35,403.16 491.50,406.92 C487.91,408.64 467.99,408.80 463.79,407.15 C462.03,406.45 460.86,406.42 460.46,407.06 C459.56,408.51 461.87,414.74 463.55,415.38 C464.35,415.69 465.00,416.83 465.00,417.92 C465.00,420.21 469.57,423.77 479.25,429.01 C481.31,430.13 483.00,431.48 483.00,432.02 C483.00,432.56 483.61,433.00 484.35,433.00 C485.09,433.00 486.73,433.90 488.00,435.00 C489.27,436.10 491.33,437.00 492.59,437.00 C493.94,437.00 495.11,437.76 495.47,438.89 C495.82,440.00 497.84,441.41 501.26,443.02 C501.16,442.97 501.07,442.93 500.97,442.89 C497.49,441.39 495.75,441.10 494.81,441.85 C494.79,441.87 494.77,441.88 494.75,441.90 ZM 636.76 387.23 C636.03,387.49 635.40,388.16 634.37,389.36 C632.18,391.91 631.35,396.24 631.93,402.16 C632.18,404.67 630.70,405.08 625.36,403.98 C604.32,399.62 598.00,401.05 598.00,410.16 C598.00,411.28 597.07,413.49 595.94,415.09 C594.80,416.68 593.90,418.77 593.93,419.74 C594.46,436.05 595.66,439.41 602.70,444.31 C605.23,446.06 608.24,448.25 609.39,449.16 C611.49,450.82 611.49,450.82 608.50,452.02 C606.85,452.68 604.72,453.62 603.76,454.11 C602.81,454.60 600.75,455.00 599.20,455.00 C597.64,455.00 594.14,455.63 591.43,456.41 C590.55,456.66 589.41,456.93 588.14,457.19 C589.38,456.92 590.53,456.65 591.43,456.40 C594.14,455.63 597.64,455.00 599.20,455.00 C602.02,455.00 605.90,453.33 607.17,451.57 C607.54,451.06 605.95,449.45 603.64,447.99 C601.33,446.52 598.66,444.13 597.70,442.67 C596.75,441.21 595.43,440.12 594.79,440.26 C593.37,440.55 592.28,436.24 592.12,429.74 C592.05,427.12 591.51,424.18 590.90,423.21 C589.50,420.97 591.35,413.46 593.51,412.63 C594.33,412.32 595.00,411.09 595.00,409.90 C595.00,408.71 595.97,406.89 597.15,405.87 C598.34,404.84 598.90,404.00 598.41,404.00 C597.92,404.00 598.77,402.85 600.29,401.43 C602.70,399.19 603.97,398.86 610.28,398.78 C615.07,398.72 618.93,399.29 621.75,400.46 C627.39,402.79 628.75,402.11 628.82,396.95 C628.90,391.47 632.33,387.41 636.76,387.23 ZM 578.53 458.61 C572.10,459.31 571.92,460.08 575.16,467.09 C573.84,464.54 573.02,462.24 573.01,460.77 C573.00,458.60 571.34,458.26 556.90,457.49 L 545.29 456.87 L 544.76 458.16 C544.86,457.85 544.88,457.66 544.82,457.62 C542.12,456.04 537.75,454.56 529.50,452.45 C523.93,451.03 518.51,449.41 513.36,447.65 C518.04,449.20 523.52,450.82 529.65,452.45 C537.57,454.56 542.34,455.39 543.37,454.82 C544.26,454.32 550.81,454.31 558.60,454.79 C569.64,455.48 572.51,455.98 573.51,457.35 C574.37,458.52 575.38,458.84 578.53,458.61 ZM 667.28 408.26 L 666.25 408.29 L 655.38 398.62 C648.38,392.41 643.11,388.54 640.62,387.78 C640.12,387.63 639.68,387.50 639.28,387.39 C640.94,387.46 642.61,387.24 643.35,386.82 C644.71,386.06 647.16,388.02 656.17,397.08 L 667.28 408.26 ZM 534.99 470.99 C532.02,473.92 529.02,476.47 527.17,477.42 C523.37,479.38 517.87,480.42 511.64,480.45 C517.19,480.34 522.28,479.46 525.84,477.92 C528.09,476.94 531.63,474.16 534.99,470.99 ZM 777.79 177.36 C770.71,178.97 763.91,181.84 757.79,185.95 C756.32,186.93 755.03,187.79 753.87,188.59 C761.36,182.87 769.19,179.18 777.79,177.36 ZM 860.00 255.94 C860.00,248.56 859.46,241.97 858.30,235.83 C859.68,241.81 860.00,246.16 860.00,255.94 ZM 722.36 301.65 C723.52,306.34 725.11,311.47 726.39,314.16 C726.73,314.88 727.11,315.61 727.52,316.34 C725.09,312.16 723.67,308.01 722.59,302.68 C722.51,302.33 722.44,301.99 722.36,301.65 ZM 483.23 462.42 C482.83,458.90 483.03,455.33 484.00,453.01 C485.08,450.40 490.09,445.12 493.12,443.22 C484.00,450.67 482.59,453.63 483.19,461.90 C483.20,462.08 483.21,462.25 483.23,462.42 ZM 622.09 482.96 C626.09,480.73 628.98,477.91 630.75,474.50 C628.71,478.43 626.00,481.16 622.09,482.96 ZM 842.93 202.10 C838.63,196.97 832.68,191.31 827.31,187.23 C829.90,189.14 832.48,191.31 835.09,193.77 C838.03,196.54 840.62,199.28 842.93,202.10 ZM 819.36 182.24 C814.68,179.93 809.77,178.25 804.76,177.18 C809.95,178.18 814.74,179.84 819.36,182.24 ZM 733.65 402.67 C724.27,404.97 713.06,406.46 699.41,407.23 C712.83,406.44 724.28,404.91 733.65,402.67 ZM 735.94 327.37 C738.10,329.60 740.44,331.73 742.87,333.65 C740.72,332.07 738.88,330.54 737.80,329.39 C737.15,328.70 736.53,328.03 735.94,327.37 ZM 583.33 478.45 C586.01,481.06 588.92,483.17 591.54,484.32 C588.64,483.16 586.19,481.29 583.33,478.45 ZM 758.54 391.15 C756.74,393.03 754.33,394.81 751.57,396.22 C751.41,396.30 751.24,396.39 751.08,396.47 C754.10,394.86 756.59,393.09 758.54,391.15 ZM 594.72 485.27 C597.09,485.72 600.24,485.93 603.57,485.93 C599.99,485.98 597.15,485.79 594.72,485.27 ZM 851.52 215.69 C850.22,213.06 848.75,210.44 847.11,207.80 C848.74,210.30 850.20,212.91 851.52,215.69 ZM 754.96 340.98 C757.88,342.19 758.77,343.51 757.46,345.20 C758.75,343.50 757.86,342.19 754.96,340.98 ZM 486.67 472.34 C486.46,472.06 486.26,471.77 486.06,471.47 C485.74,471.01 485.45,470.48 485.18,469.90 C485.61,470.77 486.11,471.58 486.67,472.34 ZM 544.00 459.99 C543.91,460.22 543.78,460.48 543.63,460.75 C543.76,460.49 543.89,460.24 544.00,459.99 ZM 761.89 383.59 C761.96,383.92 762.00,384.21 762.00,384.48 C761.98,384.19 761.95,383.90 761.89,383.59 Z" fill="rgba(121,189,24,1)"/>
<path d="M 547.53 266.31 C548.49,265.82 549.13,265.73 549.43,266.03 C549.98,266.58 550.45,270.96 550.47,275.77 C550.50,283.48 550.81,284.97 553.13,288.50 C560.30,299.41 568.44,301.04 579.61,293.81 C584.15,290.87 589.08,283.37 589.95,278.08 C590.26,276.20 591.05,274.48 591.70,274.27 C592.58,273.97 592.67,274.68 592.04,276.86 C591.41,279.05 591.54,279.99 592.50,280.36 C592.57,280.39 592.66,280.45 592.76,280.53 C592.16,280.78 591.07,282.28 590.12,284.25 C583.93,297.00 573.10,302.61 561.90,298.86 C553.51,296.06 549.12,288.37 548.14,274.79 L 547.53 266.31 ZM 634.59 315.47 C619.85,311.74 603.78,299.56 597.13,287.10 C597.07,286.99 597.02,286.88 596.96,286.77 ZM 543.97 457.16 C542.55,456.79 539.37,456.15 535.81,455.53 C527.96,454.16 509.77,448.49 500.78,444.60 C496.45,442.74 494.36,442.57 491.47,444.59 C492.47,443.74 493.58,442.84 494.81,441.85 C495.75,441.10 497.49,441.39 500.97,442.89 C509.53,446.57 519.24,449.83 529.50,452.45 C536.94,454.35 541.22,455.74 543.97,457.16 ZM 634.37 389.36 C631.78,392.37 631.16,398.55 633.08,402.15 C633.68,403.26 633.91,404.43 633.60,404.74 C633.38,404.96 631.63,404.87 629.30,404.55 C631.46,404.62 632.10,403.89 631.93,402.16 C631.35,396.24 632.18,391.91 634.37,389.36 ZM 518.82 282.92 C524.80,281.34 530.37,278.72 536.28,274.65 C530.26,278.94 525.40,281.19 518.82,282.92 ZM 604.47 401.88 C604.26,401.93 604.04,401.99 603.83,402.05 C599.84,403.12 598.00,405.69 598.00,410.16 C598.00,405.37 599.75,402.70 604.47,401.88 ZM 530.85 474.61 C535.11,471.16 540.01,466.02 542.77,462.22 C540.37,465.85 535.22,471.11 530.85,474.61 ZM 483.84 453.77 C483.10,456.00 482.94,458.56 483.19,461.90 C482.94,458.53 483.03,456.04 483.84,453.77 ZM 621.17 403.15 C619.14,402.79 617.38,402.50 615.85,402.26 C617.48,402.50 619.25,402.79 621.17,403.15 Z" fill="rgba(154,166,21,1)"/>
<path d="M 634.60 315.47 C619.85,311.74 603.78,299.57 597.13,287.10 C595.31,283.67 593.22,280.64 592.50,280.36 C591.54,279.99 591.41,279.05 592.04,276.86 C592.59,274.94 592.59,274.16 591.98,274.20 C592.21,274.07 592.46,273.93 592.73,273.80 C596.95,271.78 597.66,268.26 595.61,259.56 C593.37,250.06 589.05,244.86 581.01,241.97 C571.75,238.64 565.43,239.63 556.82,245.74 C551.98,249.18 546.00,257.08 546.00,260.04 C546.00,260.97 547.00,263.00 548.21,264.55 C548.57,265.00 548.87,265.43 549.13,265.88 C548.23,265.69 546.16,266.92 542.97,269.57 C534.26,276.78 526.76,280.89 518.43,283.02 C509.06,285.41 505.25,285.48 495.21,283.41 C474.25,279.10 457.08,262.52 451.57,241.27 C447.46,225.40 452.23,191.64 461.13,173.61 C468.50,158.68 482.15,146.00 490.84,146.00 C494.62,146.00 495.60,144.63 496.31,138.30 C498.12,122.19 506.15,122.56 518.42,139.33 C521.50,143.53 522.17,143.34 523.96,137.75 C526.05,131.19 528.15,132.37 542.67,148.25 C549.83,156.09 557.45,164.52 559.60,167.00 C569.08,177.94 574.55,183.02 579.97,185.90 C585.11,188.64 586.73,189.00 594.01,189.00 C604.30,189.00 613.89,185.94 643.60,173.18 C665.69,163.69 671.78,161.60 674.39,162.60 C676.31,163.33 676.36,164.28 674.83,170.92 C674.19,173.71 673.95,176.28 674.31,176.64 C674.66,177.00 678.23,175.90 682.23,174.20 C692.05,170.04 695.50,169.44 698.49,171.40 C701.89,173.63 702.60,178.73 700.62,186.75 L 698.99 193.35 L 702.57 198.54 C708.60,207.29 711.16,215.81 711.72,229.00 C712.16,239.16 711.90,241.78 709.51,251.46 C702.31,280.54 692.30,297.09 675.67,307.40 C662.37,315.65 647.13,318.64 634.60,315.47 ZM 635.39 293.64 C637.93,294.47 642.75,294.86 648.00,294.67 C655.26,294.40 657.43,293.88 662.88,291.10 C671.27,286.81 677.97,280.41 682.04,272.78 C686.33,264.73 691.99,242.66 691.98,234.00 C691.97,217.42 683.82,203.48 670.22,196.79 C664.02,193.73 662.83,193.50 653.52,193.50 C644.38,193.50 642.93,193.77 637.00,196.60 C619.33,205.02 613.74,215.56 607.58,252.06 C606.30,259.67 610.69,273.00 617.13,281.01 C620.96,285.77 629.58,291.74 635.39,293.64 ZM 496.00 262.12 C497.38,262.57 502.77,262.81 508.00,262.66 C519.43,262.32 525.43,259.76 533.83,251.65 C541.45,244.29 544.39,237.83 547.56,221.47 C551.89,199.10 550.05,187.71 540.37,176.99 C525.47,160.50 500.07,160.60 484.36,177.21 C477.92,184.03 475.89,188.02 472.63,200.27 C467.30,220.32 467.30,230.73 472.60,241.20 C477.33,250.53 487.00,259.17 496.00,262.12 ZM 545.50 393.94 C539.63,392.21 534.00,384.72 534.00,378.64 C534.00,377.31 534.58,375.99 535.28,375.72 C535.99,375.45 542.17,376.49 549.03,378.02 C555.89,379.55 563.14,381.09 565.15,381.43 C569.92,382.24 570.54,384.21 567.25,388.12 C562.33,393.96 553.56,396.31 545.50,393.94 ZM 574.04 367.75 C571.31,366.35 568.96,364.18 567.82,362.02 C565.81,358.17 565.40,352.49 567.07,351.46 C568.03,350.86 586.68,353.88 596.25,356.18 C600.60,357.22 601.11,359.32 598.00,363.28 C592.94,369.70 581.88,371.77 574.04,367.75 ZM 526.00 357.92 C519.89,355.18 517.57,351.78 517.53,345.52 C517.50,340.78 517.64,340.51 520.00,340.67 C525.21,341.02 548.57,347.19 549.99,348.59 C553.84,352.37 543.78,360.03 535.04,359.97 C532.54,359.95 528.47,359.03 526.00,357.92 ZM 586.17 286.81 C584.26,289.72 581.89,292.34 579.61,293.81 C579.18,294.09 578.76,294.35 578.35,294.60 C581.23,292.58 584.03,289.76 586.17,286.81 ZM 591.00 274.98 C590.59,275.64 590.21,276.67 590.00,277.79 C590.00,277.76 590.00,277.72 590.00,277.68 C590.00,276.56 590.31,275.69 591.00,274.98 ZM 563.85 297.64 C564.32,297.79 564.80,297.92 565.27,298.03 C563.62,297.76 562.04,297.16 560.52,296.23 C561.55,296.80 562.64,297.26 563.85,297.64 ZM 550.46 275.13 C550.43,272.57 550.27,270.17 550.05,268.47 C550.34,269.98 550.44,272.00 550.46,275.13 Z" fill="rgba(145,209,21,1)"/>
<path d="M 934.05 657.81 C936.24,653.13 933.94,650.39 919.49,638.68 C919.77,638.87 919.94,638.97 920.00,638.97 C920.28,638.97 920.58,540.82 920.69,420.84 L 920.87 202.68 L 922.96 200.59 C925.00,198.55 925.90,198.50 958.11,198.50 L 991.17 198.50 L 993.59 201.31 L 996.00 204.11 L 996.00 427.11 C996.00,644.13 996.18,654.50 992.61,656.01 C992.26,656.15 991.88,656.22 991.46,656.38 C990.56,656.72 977.39,657.00 962.17,657.01 L 934.50 657.01 L 934.05 657.81 ZM 561.26 656.14 C559.00,655.84 557.33,655.97 556.08,655.30 C552.06,653.16 552.46,642.74 552.23,583.22 C552.03,531.76 552.26,513.79 553.15,511.63 C555.33,506.37 557.88,505.99 591.22,506.06 C623.88,506.12 627.56,506.59 629.69,511.03 C631.44,514.70 631.89,648.53 630.16,651.73 C627.75,656.18 626.05,656.42 595.50,656.63 C579.55,656.74 564.14,656.51 561.26,656.14 ZM 441.82 655.46 C440.34,654.66 438.81,652.99 438.42,651.75 C437.37,648.44 437.16,555.15 438.19,550.76 C439.75,544.15 440.60,544.00 477.03,544.00 L 509.15 544.00 L 512.08 546.92 L 515.00 549.85 L 515.00 651.15 L 512.08 654.08 L 509.15 657.00 L 476.83 656.96 C450.48,656.93 444.00,656.65 441.82,655.46 ZM 673.78 549.71 C673.93,503.94 673.83,465.54 673.54,464.36 C673.17,462.84 671.95,462.02 669.30,461.53 C668.24,461.33 667.09,460.88 665.97,460.27 C668.92,461.51 673.03,462.00 679.22,462.00 C684.32,462.01 694.24,462.30 701.25,462.66 L 714.00 463.31 L 714.00 476.72 C714.00,484.29 714.46,491.00 715.06,492.12 C715.65,493.21 717.56,494.98 719.31,496.05 C721.87,497.61 723.91,497.93 740.50,497.98 L 722.17 498.26 L 718.47 509.88 C716.43,516.27 711.27,532.08 706.98,545.00 C702.70,557.92 695.32,580.52 690.58,595.20 C682.72,619.53 680.81,624.14 678.15,625.16 C677.67,625.35 676.42,627.17 675.39,629.21 C673.53,632.87 673.50,631.78 673.78,549.71 ZM 835.91 455.79 C836.58,459.89 837.15,463.57 837.26,464.50 C837.47,466.27 838.36,466.53 845.09,466.79 C849.26,466.95 855.26,466.67 858.42,466.18 C862.47,465.54 864.29,465.60 864.59,466.39 C864.83,467.00 864.90,494.71 864.76,527.97 L 864.50 588.45 L 860.08 584.47 C853.50,578.55 841.10,564.09 838.68,559.52 C831.14,545.28 829.80,538.35 829.63,512.83 C829.56,502.02 829.26,492.93 828.97,492.64 C828.68,492.35 826.66,492.51 824.47,492.99 C818.23,494.36 809.97,495.41 799.10,496.18 C804.23,495.73 809.22,495.17 814.26,494.51 C830.71,492.35 836.25,489.52 837.55,482.60 C838.31,478.51 837.57,466.67 835.91,455.79 ZM 792.92 653.42 L 790.50 650.84 L 790.22 617.67 L 789.94 584.50 L 792.63 588.50 C798.25,596.89 805.02,604.22 827.71,626.50 C850.63,649.01 851.12,649.57 850.44,652.75 L 849.75 656.00 L 795.35 656.00 ZM 737.34 654.25 C738.84,648.71 738.96,646.52 737.90,643.60 C736.84,640.68 737.20,638.90 741.38,626.42 C743.94,618.76 746.47,611.83 747.00,611.00 C747.64,610.01 747.97,616.51 747.98,630.30 C748.00,651.05 748.00,651.10 745.55,653.55 C742.53,656.56 736.57,657.07 737.34,654.25 ZM 654.92 454.61 L 645.26 454.84 L 631.01 455.19 L 645.26 454.79 C649.70,454.67 652.76,454.59 654.92,454.61 ZM 912.92 633.48 C909.44,630.84 906.77,629.01 906.31,629.01 C906.29,629.01 906.26,629.01 906.23,629.02 C906.27,629.01 906.30,629.00 906.33,629.00 C906.95,629.00 909.84,630.97 912.92,633.48 ZM 917.85 679.76 C924.08,671.89 930.15,663.97 932.48,660.51 C930.57,663.46 924.32,671.61 917.85,679.76 Z" fill="rgba(147,214,250,1)"/>
<path d="M 840.62 264.04 C840.99,268.42 841.47,272.00 841.69,272.00 C841.92,272.00 843.50,271.28 845.21,270.39 C847.39,269.26 850.06,268.91 854.16,269.21 L 860.00 269.63 L 860.00 255.94 C860.00,269.41 860.05,269.69 862.60,272.08 C867.05,276.24 868.25,279.65 867.83,287.01 C867.39,294.74 864.73,299.16 857.74,303.79 C854.22,306.12 852.63,306.49 846.47,306.46 L 839.30 306.42 L 836.14 312.53 C831.86,320.77 824.39,328.92 815.97,334.52 C811.43,337.54 809.00,339.81 809.00,341.05 C809.00,342.17 811.17,344.54 814.40,346.92 C814.44,346.96 814.48,346.99 814.53,347.02 C814.44,346.96 814.35,346.90 814.27,346.84 C809.83,343.79 809.65,343.75 807.11,345.42 C796.07,352.67 776.11,358.99 768.68,357.60 C764.36,356.79 759.00,352.56 759.00,349.97 C759.00,348.95 758.55,347.84 758.01,347.51 C757.40,347.13 751.46,349.51 746.56,351.79 C747.26,351.44 748.00,351.08 748.75,350.71 C758.77,345.89 760.45,343.26 754.96,340.98 C743.88,336.39 731.37,324.64 726.39,314.16 C724.15,309.43 720.91,297.13 720.82,293.00 C720.80,292.17 721.46,289.02 722.28,286.00 C723.09,282.98 724.07,278.70 724.44,276.50 C724.82,274.30 725.51,271.15 726.00,269.50 C727.73,263.56 730.13,254.04 736.96,226.10 C737.95,222.03 738.81,218.49 739.58,215.39 C739.22,217.02 739.00,218.11 739.00,218.31 C739.00,218.76 740.69,217.53 742.75,215.58 C755.58,203.43 778.39,199.06 796.51,205.26 C821.14,213.70 838.34,236.61 840.62,264.04 ZM 661.42 456.82 C659.52,454.42 659.35,454.40 645.26,454.79 L 631.01 455.19 L 631.71 457.85 C631.73,457.92 631.75,458.00 631.77,458.08 C631.10,455.80 629.76,455.00 627.26,454.55 C625.19,454.18 621.15,453.15 618.28,452.27 C613.77,450.87 612.49,450.84 608.78,452.00 C608.33,452.14 607.88,452.29 607.44,452.45 C607.81,452.30 608.16,452.15 608.50,452.02 C611.49,450.82 611.49,450.82 609.39,449.16 C608.24,448.25 605.23,446.06 602.70,444.31 C595.66,439.41 594.46,436.05 593.93,419.74 C593.90,418.77 594.80,416.68 595.94,415.09 C597.07,413.49 598.00,411.28 598.00,410.16 C598.00,405.69 599.84,403.12 603.83,402.05 C607.75,400.99 611.07,401.29 626.27,404.06 C629.99,404.74 633.29,405.05 633.60,404.74 C633.91,404.43 633.68,403.26 633.08,402.15 C631.16,398.55 631.78,392.37 634.37,389.36 C636.61,386.75 636.95,386.67 640.62,387.78 C643.11,388.54 648.38,392.41 655.38,398.62 L 666.25 408.29 L 687.88 407.71 C693.63,407.55 699.01,407.30 704.04,406.94 C698.42,407.37 692.40,407.68 686.00,407.86 L 663.50 408.50 L 661.31 424.00 C658.60,443.17 658.15,452.85 662.11,457.62 C661.87,457.36 661.64,457.10 661.42,456.82 ZM 793.03 281.89 C806.65,287.32 821.27,271.71 817.12,256.15 C813.39,242.15 797.99,238.74 787.86,249.66 C777.34,261.00 779.85,276.63 793.03,281.89 ZM 743.85 270.04 C752.02,274.48 762.44,270.72 767.71,261.41 C773.33,251.48 772.74,242.51 766.02,235.79 C762.53,232.30 761.79,232.00 756.57,232.00 C750.10,232.00 746.83,233.42 742.36,238.16 C737.53,243.30 735.67,247.78 735.58,254.50 C735.49,261.76 738.28,267.01 743.85,270.04 ZM 766.36 324.20 C771.64,326.36 775.71,326.41 781.72,324.39 C788.34,322.16 794.33,316.98 797.41,310.81 C800.29,305.03 800.71,300.35 798.61,297.48 C797.25,295.62 797.02,295.64 788.86,298.24 C775.09,302.63 768.73,303.51 761.37,302.05 C753.35,300.45 752.00,300.95 752.00,305.51 C752.00,312.86 758.11,320.82 766.36,324.20 ZM 438.50 404.00 C450.88,404.00 461.00,403.65 461.00,403.22 C461.00,402.79 462.12,402.34 463.50,402.23 C464.88,402.12 466.00,402.41 466.00,402.89 C466.00,403.36 467.91,403.77 470.25,403.80 C472.59,403.82 476.45,404.16 478.84,404.54 C481.59,404.97 483.58,404.82 484.29,404.11 C484.90,403.50 486.86,403.00 488.64,403.00 C490.42,403.00 492.18,402.51 492.55,401.92 C492.92,401.32 495.09,400.03 497.37,399.05 C501.75,397.18 504.02,395.09 504.38,392.60 C504.50,391.77 505.31,390.29 506.18,389.30 C508.99,386.10 510.85,377.60 509.88,372.40 C509.40,369.82 508.46,367.06 507.80,366.26 C507.13,365.45 506.48,364.06 506.35,363.15 C506.01,360.90 503.34,358.89 493.72,353.67 C488.59,350.89 483.54,348.96 480.30,348.52 C477.44,348.14 474.57,347.19 473.93,346.41 C473.01,345.31 473.06,345.00 474.13,344.98 C475.02,344.97 475.13,344.71 474.43,344.23 C472.41,342.85 471.98,339.86 473.50,337.70 C475.18,335.29 475.47,329.37 474.08,325.71 C473.35,323.78 472.20,323.16 468.38,322.64 L 463.60 321.98 L 457.30 328.59 C453.84,332.23 451.22,335.54 451.47,335.96 C451.92,336.67 448.47,338.67 446.61,338.78 C446.12,338.81 445.40,339.36 445.00,340.00 C444.47,340.86 443.13,340.60 440.08,339.04 C437.78,337.87 430.13,334.95 423.09,332.57 C422.13,332.24 421.17,331.91 420.21,331.59 C429.47,334.72 440.07,338.05 442.51,338.45 C446.39,339.07 446.64,338.94 450.20,334.30 C452.23,331.66 455.87,327.36 458.29,324.75 C462.41,320.29 462.99,320.00 467.72,320.00 C472.07,320.00 473.19,320.44 475.88,323.19 C479.67,327.06 480.10,332.69 477.00,337.77 C474.17,342.41 474.40,344.83 477.75,345.56 C479.26,345.89 484.77,347.80 490.00,349.79 C497.64,352.72 500.62,354.48 505.21,358.83 C512.01,365.26 513.48,368.96 512.67,377.61 C511.61,388.94 504.27,399.02 493.35,404.13 C486.92,407.13 476.46,407.72 467.16,405.60 C461.88,404.40 454.82,404.01 438.50,404.00 ZM 353.67 165.45 L 352.19 163.70 L 350.10 163.79 C351.20,163.65 351.79,163.46 351.58,163.25 C351.17,162.84 345.36,162.63 338.67,162.79 L 326.50 163.08 L 323.36 158.79 C321.63,156.43 320.22,153.32 320.23,151.89 C320.25,149.32 320.32,149.35 323.88,153.29 C327.75,157.59 333.92,160.95 338.00,160.97 C343.36,161.01 348.29,158.76 352.85,154.21 C355.91,151.15 356.87,150.53 355.66,152.39 C354.38,154.35 353.92,156.56 354.16,159.61 C354.36,162.02 354.16,164.00 353.72,164.00 C353.10,164.00 353.18,164.62 353.67,165.45 ZM 418.94 161.98 C417.06,161.44 407.30,161.00 397.26,161.00 C381.19,161.00 379.00,161.19 379.00,162.60 C379.00,163.48 377.47,165.73 375.60,167.60 C380.17,163.03 380.30,157.92 376.00,152.50 C372.07,147.55 372.18,147.00 376.25,151.27 C378.04,153.15 381.67,155.50 384.33,156.51 C388.87,158.22 389.46,158.23 394.24,156.71 C397.03,155.81 398.91,155.45 398.41,155.90 C396.80,157.36 390.81,159.00 386.60,159.13 L 382.50 159.25 L 387.00 160.05 C389.48,160.49 396.90,160.89 403.51,160.93 C410.11,160.97 417.06,161.44 418.94,161.98 ZM 620.05 483.95 C615.05,485.78 602.85,486.49 595.80,485.45 C602.95,486.20 615.41,485.52 620.05,483.95 ZM 342.90 164.10 L 329.29 164.67 C317.49,165.17 311.50,165.49 307.77,166.06 C310.81,165.57 315.16,165.26 322.37,164.90 C329.71,164.54 338.08,164.21 342.90,164.10 ZM 585.36 480.29 C581.36,476.92 577.56,472.26 575.48,467.79 C577.33,471.76 581.40,476.72 585.36,480.29 ZM 751.37 396.32 C746.91,398.75 741.26,400.80 734.45,402.47 C740.91,400.83 746.48,398.79 751.37,396.32 ZM 747.15 194.34 C749.46,191.42 752.58,189.45 757.79,185.95 C752.66,189.40 749.41,191.80 747.15,194.34 ZM 358.50 169.86 C358.34,169.78 358.16,169.67 357.98,169.54 C359.60,170.31 363.27,170.94 366.35,170.96 C368.95,170.98 370.48,170.92 371.72,170.49 C370.48,170.92 368.95,170.98 366.35,170.97 C363.13,170.95 359.60,170.45 358.50,169.86 ZM 762.00 384.45 C762.13,386.68 761.04,388.60 758.80,390.89 C758.72,390.98 758.63,391.07 758.54,391.15 C760.70,388.91 762.00,386.53 762.00,384.51 C762.00,384.49 762.00,384.47 762.00,384.45 ZM 757.20 375.38 C759.94,378.86 761.48,381.42 761.90,383.62 C761.49,381.74 759.91,378.97 757.20,375.38 ZM 631.68 471.64 C631.43,472.81 631.12,473.80 630.75,474.50 C630.35,475.27 629.89,476.02 629.37,476.73 C630.43,475.20 631.19,473.51 631.68,471.64 ZM 832.02 372.16 C830.79,367.18 828.32,362.10 825.05,357.57 C828.37,362.09 830.76,367.06 832.02,372.16 ZM 603.45 454.25 C602.82,454.67 601.10,455.00 599.48,455.00 C597.77,455.00 594.14,455.63 591.43,456.41 C594.14,455.63 597.64,455.00 599.20,455.00 C600.60,455.00 602.40,454.67 603.45,454.25 ZM 740.00 355.54 C740.07,355.96 742.68,358.99 745.86,362.34 C742.64,358.95 740.00,355.89 740.00,355.55 C740.00,355.55 740.00,355.54 740.00,355.54 ZM 407.88 327.15 C407.47,326.99 407.14,326.86 406.89,326.75 C405.03,325.94 401.48,324.46 399.00,323.46 C401.48,324.46 404.97,325.91 406.77,326.69 C407.09,326.83 407.46,326.98 407.88,327.15 ZM 632.34 462.73 C632.36,463.22 632.36,463.72 632.37,464.23 C632.36,463.70 632.35,463.20 632.34,462.73 Z" fill="rgba(169,100,55,1)"/>
<path d="M 357.78 169.44 C355.12,168.00 352.14,164.00 353.72,164.00 C354.16,164.00 354.36,162.02 354.16,159.61 C353.92,156.56 354.38,154.35 355.66,152.39 C356.87,150.53 355.91,151.15 352.85,154.21 C350.31,156.74 347.67,158.56 344.89,159.67 C347.43,158.55 349.90,156.67 352.37,154.03 C354.92,151.31 357.00,148.39 357.00,147.54 C357.00,146.69 357.45,146.00 358.00,146.00 C358.56,146.00 359.00,143.17 359.00,139.50 C359.00,135.93 358.61,133.00 358.13,133.00 C357.40,133.00 356.22,128.08 355.78,123.25 C355.72,122.56 355.22,122.00 354.67,122.00 C354.12,122.00 353.94,121.73 354.27,121.39 C355.43,120.24 345.93,113.06 341.77,111.94 C330.32,108.85 317.98,120.63 317.99,134.64 C318.00,143.10 321.39,151.11 326.64,155.91 C325.64,155.09 324.71,154.21 323.88,153.29 C320.32,149.35 320.25,149.32 320.23,151.89 C320.22,153.32 321.63,156.43 323.36,158.79 L 326.50 163.08 L 338.67 162.79 C345.36,162.63 351.17,162.84 351.58,163.25 C352.00,163.66 349.22,164.02 345.42,164.05 C341.61,164.08 331.24,164.46 322.37,164.90 C309.00,165.56 305.49,166.07 301.81,167.85 C299.37,169.03 297.13,170.00 296.83,170.00 C295.58,170.00 295.13,155.99 296.07,146.76 C298.22,125.82 303.71,117.01 331.83,89.33 C343.19,78.15 352.98,69.00 353.59,69.00 C355.10,69.00 384.22,89.41 395.14,98.11 C415.15,114.07 424.54,129.73 425.05,148.00 C425.19,153.02 423.89,161.44 422.81,162.52 C422.57,162.77 420.83,162.52 418.94,161.98 C417.06,161.44 410.11,160.97 403.51,160.93 C396.90,160.89 389.48,160.49 387.00,160.05 L 382.50 159.25 L 386.60 159.13 C390.81,159.00 396.80,157.36 398.41,155.90 C398.91,155.45 397.03,155.81 394.24,156.71 C389.46,158.23 388.87,158.22 384.33,156.51 C383.68,156.26 382.97,155.93 382.25,155.55 C386.01,157.29 393.16,157.51 396.32,155.86 C399.53,154.17 405.92,148.25 405.25,147.58 C404.93,147.26 405.22,147.00 405.89,147.00 C406.57,147.00 406.84,146.55 406.50,146.00 C406.16,145.45 406.41,145.00 407.05,145.00 C407.69,145.00 407.95,144.32 407.64,143.50 C407.32,142.68 407.39,142.00 407.78,142.00 C408.75,142.00 408.56,129.13 407.54,126.00 C407.10,124.62 406.31,123.23 405.80,122.90 C405.29,122.57 404.77,121.63 404.65,120.81 C404.36,118.85 398.06,113.35 394.59,112.04 C389.81,110.22 382.63,110.78 378.90,113.26 C372.19,117.73 369.83,126.81 372.03,139.65 C373.39,147.62 375.70,151.52 381.12,154.93 C379.23,153.82 377.37,152.45 376.25,151.27 C372.18,147.00 372.07,147.55 376.00,152.50 C380.30,157.92 380.17,163.03 375.60,167.60 C372.49,170.71 371.69,171.00 366.35,170.96 C363.13,170.94 359.27,170.25 357.78,169.44 ZM 434.20 404.00 C444.21,404.00 451.97,403.63 451.45,403.17 C450.93,402.72 448.48,401.78 446.00,401.08 C443.52,400.38 440.83,399.47 440.00,399.05 C438.05,398.07 437.50,389.32 438.93,382.00 C441.80,367.36 444.32,351.01 444.41,346.54 C444.50,341.76 444.35,341.50 440.50,339.33 C439.25,338.63 436.33,337.39 432.79,336.04 C436.13,337.30 438.86,338.42 440.08,339.04 C443.13,340.60 444.47,340.86 445.00,340.00 C445.40,339.36 446.12,338.81 446.61,338.78 C448.47,338.67 451.92,336.67 451.47,335.96 C451.22,335.54 453.84,332.23 457.30,328.59 L 463.60 321.98 L 468.38 322.64 C472.20,323.16 473.35,323.78 474.08,325.71 C475.47,329.37 475.18,335.29 473.50,337.70 C471.98,339.86 472.41,342.85 474.43,344.23 C475.13,344.71 475.02,344.97 474.13,344.98 C473.06,345.00 473.01,345.31 473.93,346.41 C474.57,347.19 477.44,348.14 480.30,348.52 C483.54,348.96 488.59,350.89 493.72,353.67 C503.34,358.89 506.01,360.90 506.35,363.15 C506.48,364.06 507.13,365.45 507.80,366.26 C508.46,367.06 509.40,369.82 509.88,372.40 C510.85,377.60 508.99,386.10 506.18,389.30 C505.31,390.29 504.50,391.77 504.38,392.60 C504.02,395.09 501.75,397.18 497.37,399.05 C495.09,400.03 492.92,401.32 492.55,401.92 C492.18,402.51 490.42,403.00 488.64,403.00 C486.86,403.00 484.90,403.50 484.29,404.11 C483.58,404.82 481.59,404.97 478.84,404.54 C476.45,404.16 472.59,403.82 470.25,403.80 C467.91,403.77 466.00,403.36 466.00,402.89 C466.00,402.41 464.88,402.12 463.50,402.23 C462.12,402.34 461.00,402.79 461.00,403.22 C461.00,403.65 450.88,404.00 438.50,404.00 L 434.20 404.00 ZM 339.56 160.92 C339.04,160.96 338.52,160.98 338.00,160.97 C336.48,160.96 334.68,160.49 332.81,159.68 C335.15,160.58 337.39,161.00 339.56,160.92 ZM 427.29 334.03 C426.20,333.64 425.09,333.26 424.00,332.90 C417.36,330.68 410.21,328.13 407.75,327.10 C410.44,328.16 416.86,330.46 423.09,332.57 C424.48,333.04 425.90,333.53 427.29,334.03 ZM 402.71 324.98 C401.38,324.43 400.07,323.89 399.00,323.46 C397.61,322.90 395.61,322.07 393.60,321.22 C395.61,322.07 397.61,322.90 399.00,323.46 C400.10,323.90 401.42,324.45 402.71,324.98 Z" fill="rgba(179,108,69,1)"/>
<path d="M 326.25 403.98 C296.14,403.98 270.88,403.58 270.12,403.10 C269.00,402.39 268.84,398.94 269.26,384.86 C269.54,375.31 270.36,363.16 271.07,357.86 L 272.38 348.23 L 268.32 343.36 C258.24,331.27 253.13,318.83 252.27,304.27 C251.56,292.14 253.09,284.65 258.64,273.13 C262.32,265.51 264.77,262.09 271.83,254.76 C276.60,249.80 283.76,243.07 287.75,239.81 L 295.01 233.87 L 297.83 235.88 C299.39,236.99 303.03,238.83 305.93,239.97 C311.07,242.00 312.56,242.04 364.85,241.78 L 418.50 241.50 L 424.10 238.75 C427.18,237.24 430.04,236.00 430.46,236.00 C432.14,236.00 424.82,268.83 422.84,270.19 C422.10,270.70 417.67,270.86 413.00,270.56 C408.33,270.25 394.96,269.71 383.30,269.35 C366.27,268.83 360.11,268.60 358.02,271.41 C356.81,273.03 356.96,275.67 357.16,279.84 C357.59,288.67 361.81,299.09 367.31,304.85 C370.41,308.10 382.16,317.00 383.35,317.00 C383.67,317.00 386.32,318.05 389.22,319.32 C392.12,320.60 396.52,322.47 399.00,323.46 C401.48,324.46 405.30,326.05 407.50,327.00 C409.70,327.94 417.12,330.60 424.00,332.90 C430.88,335.19 438.30,338.09 440.50,339.33 C444.35,341.50 444.50,341.76 444.41,346.54 C444.32,351.01 441.80,367.36 438.93,382.00 C437.50,389.32 438.05,398.07 440.00,399.05 C440.83,399.47 443.52,400.38 446.00,401.08 C448.48,401.78 450.93,402.72 451.45,403.17 C451.97,403.63 444.21,404.00 434.20,404.00 L 381.00 404.00 L 326.25 403.98 Z" fill="rgba(202,51,96,1)"/>
<path d="M 635.39 293.64 C629.58,291.74 620.96,285.77 617.13,281.01 C610.69,273.00 606.30,259.67 607.58,252.06 C613.74,215.56 619.33,205.02 637.00,196.60 C642.93,193.77 644.38,193.50 653.52,193.50 C662.83,193.50 664.02,193.73 670.22,196.79 C683.82,203.48 691.97,217.42 691.98,234.00 C691.99,242.66 686.33,264.73 682.04,272.78 C677.97,280.41 671.27,286.81 662.88,291.10 C657.43,293.88 655.26,294.40 648.00,294.67 C642.75,294.86 637.93,294.47 635.39,293.64 ZM 496.00 262.12 C487.00,259.17 477.33,250.53 472.60,241.20 C467.30,230.73 467.30,220.32 472.63,200.27 C475.89,188.02 477.92,184.03 484.36,177.21 C500.07,160.60 525.47,160.50 540.37,176.99 C550.05,187.71 551.89,199.10 547.56,221.47 C544.39,237.83 541.45,244.29 533.83,251.65 C525.43,259.76 519.43,262.32 508.00,262.66 C502.77,262.81 497.38,262.57 496.00,262.12 ZM 650.88 269.06 C658.35,265.25 660.88,261.10 665.88,244.43 C671.16,226.83 665.91,215.86 652.19,215.81 C649.23,215.79 649.11,215.94 648.80,220.00 C648.63,222.33 647.37,224.63 644.79,227.34 C641.11,231.22 640.95,231.27 635.62,230.64 C630.27,230.01 630.18,230.05 629.15,233.00 C628.57,234.65 628.36,236.00 628.67,236.00 C628.99,236.00 628.77,236.57 628.19,237.27 C627.61,237.97 626.59,241.47 625.93,245.06 C624.92,250.58 624.98,252.41 626.34,257.08 C628.09,263.11 630.53,265.95 636.56,268.95 C641.60,271.47 646.09,271.50 650.88,269.06 ZM 331.43 159.11 C323.53,155.52 318.01,145.46 317.99,134.64 C317.98,120.63 330.32,108.85 341.77,111.94 C345.93,113.06 355.43,120.24 354.27,121.39 C353.94,121.73 354.12,122.00 354.67,122.00 C355.22,122.00 355.72,122.56 355.78,123.25 C356.22,128.08 357.40,133.00 358.13,133.00 C358.61,133.00 359.00,135.93 359.00,139.50 C359.00,143.17 358.56,146.00 358.00,146.00 C357.45,146.00 357.00,146.69 357.00,147.54 C357.00,148.39 354.92,151.31 352.37,154.03 C345.80,161.05 339.23,162.65 331.43,159.11 ZM 520.05 240.97 C525.48,238.21 529.55,232.27 530.85,225.25 C531.43,222.09 532.61,216.25 533.46,212.27 C535.30,203.71 534.53,198.69 530.56,193.48 C529.10,191.58 526.69,189.75 525.21,189.41 C523.72,189.08 521.73,188.61 520.79,188.35 C517.65,187.50 515.18,189.69 515.41,193.11 C515.67,196.77 512.59,201.86 508.97,203.78 C507.55,204.53 504.50,204.92 501.82,204.70 C497.48,204.34 497.09,204.49 496.48,206.90 C496.11,208.33 495.53,210.40 495.19,211.50 C494.85,212.60 494.56,217.36 494.54,222.08 C494.50,229.79 494.78,231.07 497.25,234.80 C502.35,242.51 511.95,245.10 520.05,240.97 ZM 381.46 155.14 C375.79,151.68 373.42,147.78 372.03,139.65 C369.83,126.81 372.19,117.73 378.90,113.26 C382.63,110.78 389.81,110.22 394.59,112.04 C398.06,113.35 404.36,118.85 404.65,120.81 C404.77,121.63 405.29,122.57 405.80,122.90 C406.31,123.23 407.10,124.62 407.54,126.00 C408.56,129.13 408.75,142.00 407.78,142.00 C407.39,142.00 407.32,142.68 407.64,143.50 C407.95,144.32 407.69,145.00 407.05,145.00 C406.41,145.00 406.16,145.45 406.50,146.00 C406.84,146.55 406.57,147.00 405.89,147.00 C405.22,147.00 404.93,147.26 405.25,147.58 C405.92,148.25 399.53,154.17 396.32,155.86 C392.92,157.63 384.92,157.25 381.46,155.14 ZM 352.93 211.70 C346.35,209.10 341.12,204.14 337.57,197.13 C334.68,191.44 334.18,184.50 336.43,181.44 C337.84,179.52 337.94,179.53 344.18,181.67 C356.00,185.73 365.73,187.29 374.46,186.54 C386.00,185.56 389.24,185.17 390.24,186.49 C390.70,187.10 390.69,188.07 390.80,189.52 C391.68,201.47 377.41,214.10 363.21,213.95 C360.62,213.92 355.99,212.91 352.93,211.70 ZM 793.03 281.89 C779.85,276.63 777.34,261.00 787.86,249.66 C797.99,238.74 813.39,242.15 817.12,256.15 C821.27,271.71 806.65,287.32 793.03,281.89 ZM 743.85 270.04 C738.28,267.01 735.49,261.76 735.58,254.50 C735.67,247.78 737.53,243.30 742.36,238.16 C746.83,233.42 750.10,232.00 756.57,232.00 C761.79,232.00 762.53,232.30 766.02,235.79 C772.74,242.51 773.33,251.48 767.71,261.41 C762.44,270.72 752.02,274.48 743.85,270.04 ZM 766.36 324.20 C758.11,320.82 752.00,312.86 752.00,305.51 C752.00,300.95 753.35,300.45 761.37,302.05 C768.73,303.51 775.09,302.63 788.86,298.24 C797.02,295.64 797.25,295.62 798.61,297.48 C800.71,300.35 800.29,305.03 797.41,310.81 C794.33,316.98 788.34,322.16 781.72,324.39 C775.71,326.41 771.64,326.36 766.36,324.20 ZM 381.00 404.00 L 416.00 404.00 L 416.00 427.00 L 381.00 427.00 L 381.00 404.00 ZM 389.97 146.52 C395.57,143.62 396.26,133.84 391.29,127.93 C384.60,119.99 374.38,129.54 377.96,140.38 C379.18,144.06 383.17,148.00 385.68,148.00 C386.46,148.00 388.39,147.33 389.97,146.52 ZM 347.08 145.42 C349.09,143.28 349.50,141.81 349.50,136.83 C349.50,131.49 349.19,130.56 346.69,128.41 C340.11,122.75 333.00,127.61 333.00,137.78 C333.00,146.35 341.74,151.10 347.08,145.42 ZM 801.98 275.01 C804.86,273.47 808.00,267.61 808.00,263.77 C808.00,258.58 804.78,255.00 800.10,255.00 C793.62,255.00 788.95,262.55 790.96,269.81 C792.46,275.26 797.27,277.53 801.98,275.01 ZM 757.33 264.90 C760.57,263.42 764.00,257.08 764.00,252.57 C764.00,248.64 760.48,244.00 757.50,244.00 C752.14,244.00 747.00,250.46 747.00,257.21 C747.00,260.87 748.32,263.10 751.50,264.85 C754.03,266.23 754.39,266.23 757.33,264.90 Z" fill="rgba(247,251,247,1)"/>
<path d="M 686.00 700.94 C677.47,698.77 665.33,696.07 659.00,694.94 C652.67,693.81 646.50,692.68 645.28,692.43 C636.92,690.72 636.81,677.07 645.11,671.19 C646.96,669.88 649.70,669.50 657.34,669.50 C666.89,669.50 667.24,669.42 669.60,666.67 C670.94,665.12 672.77,661.18 673.68,657.92 C674.59,654.67 675.86,652.00 676.51,652.00 C678.08,652.00 683.01,653.60 705.50,661.41 C715.95,665.03 724.61,668.00 724.75,668.00 C726.30,668.00 714.93,700.32 712.39,703.13 C709.83,705.95 703.64,705.44 686.00,700.94 ZM 881.50 707.26 C878.57,706.53 876.20,704.65 873.44,700.92 C868.78,694.60 871.27,685.19 879.38,678.55 C881.92,676.46 884.00,674.17 884.00,673.46 C884.00,672.74 882.94,670.88 881.65,669.33 C876.51,663.15 876.49,662.47 881.27,657.25 C883.65,654.64 889.99,647.21 895.36,640.75 C900.73,634.29 905.65,629.00 906.31,629.01 C906.96,629.01 912.00,632.64 917.50,637.07 C935.42,651.51 936.74,653.39 933.18,659.42 C930.22,664.43 907.01,693.78 901.59,699.35 C894.82,706.32 888.16,708.94 881.50,707.26 Z" fill="rgba(250,77,73,1)"/>
<path d="M 719.31 496.05 C717.56,494.98 715.65,493.21 715.06,492.12 C714.46,491.00 714.00,484.29 714.00,476.72 L 714.00 463.31 L 701.25 462.66 C694.24,462.30 684.32,462.01 679.22,462.00 C658.72,462.00 656.59,457.46 661.31,424.00 L 663.50 408.50 L 686.00 407.86 C724.47,406.77 748.82,401.10 758.80,390.89 C763.54,386.05 763.15,382.84 756.86,374.95 C754.03,371.40 749.08,365.73 745.86,362.34 C742.64,358.95 740.00,355.88 740.00,355.52 C740.00,354.41 756.96,346.86 758.01,347.51 C758.55,347.84 759.00,348.95 759.00,349.97 C759.00,352.56 764.36,356.79 768.68,357.60 C776.11,358.99 796.07,352.67 807.11,345.42 C809.65,343.75 809.83,343.79 814.27,346.84 C822.69,352.64 829.65,362.57 832.02,372.17 C832.61,374.55 833.00,381.67 832.88,388.00 C832.17,426.76 832.52,435.35 835.55,453.50 C837.46,464.96 838.37,478.22 837.55,482.60 C836.25,489.52 830.71,492.35 814.26,494.51 C795.23,497.00 776.89,497.98 749.00,497.99 C724.52,497.99 722.26,497.84 719.31,496.05 ZM 592.00 484.75 C587.20,483.16 578.46,474.18 575.48,467.79 C571.71,459.69 571.90,459.27 579.75,458.49 C583.46,458.12 588.72,457.18 591.43,456.41 C594.14,455.63 597.77,455.00 599.48,455.00 C601.20,455.00 603.03,454.63 603.55,454.17 C604.07,453.72 606.43,452.74 608.78,452.00 C612.49,450.84 613.77,450.87 618.28,452.27 C621.15,453.15 625.19,454.18 627.26,454.55 C631.61,455.33 632.44,457.18 632.36,466.00 C632.29,474.27 628.90,479.51 621.00,483.56 C616.69,485.77 597.45,486.56 592.00,484.75 ZM 502.90 480.00 C490.18,478.45 483.97,472.75 483.19,461.90 C482.66,454.64 484.02,451.12 489.12,446.51 C493.46,442.59 495.38,442.27 500.78,444.60 C509.77,448.49 527.96,454.16 535.81,455.53 C540.50,456.34 544.53,457.19 544.75,457.41 C546.77,459.44 532.32,475.10 525.84,477.92 C520.47,480.25 511.58,481.06 502.90,480.00 ZM 563.85 297.64 C559.47,296.27 556.62,293.85 553.12,288.50 C550.82,284.99 550.50,283.46 550.47,275.93 C550.43,268.63 550.10,266.94 548.21,264.55 C547.00,263.00 546.00,260.97 546.00,260.04 C546.00,257.08 551.98,249.18 556.82,245.74 C565.43,239.63 571.75,238.64 581.01,241.97 C589.05,244.86 593.37,250.06 595.61,259.56 C597.66,268.26 596.95,271.78 592.73,273.80 C590.80,274.72 590.00,275.87 590.00,277.68 C590.00,284.32 580.22,295.47 572.77,297.34 C571.35,297.70 569.58,298.17 568.84,298.39 C568.10,298.61 565.86,298.27 563.85,297.64 ZM 840.62 264.04 C838.34,236.61 821.14,213.70 796.51,205.26 C778.39,199.06 755.58,203.43 742.75,215.58 C740.69,217.53 739.00,218.76 739.00,218.31 C739.00,217.87 740.07,213.08 741.38,207.67 C744.13,196.29 745.94,193.90 757.79,185.95 C776.31,173.52 801.00,172.42 821.10,183.14 C829.05,187.37 841.77,199.34 846.79,207.30 C856.18,222.19 860.00,236.26 860.00,255.92 L 860.00 269.63 L 854.16 269.21 C850.06,268.91 847.39,269.26 845.21,270.39 C843.50,271.28 841.92,272.00 841.69,272.00 C841.47,272.00 840.99,268.42 840.62,264.04 Z" fill="rgba(248,179,11,1)"/>
</g>
</svg>